M48
;Layer_Color=9474304
;FILE_FORMAT=2:5
INCH,LZ
;TYPE=PLATED
T1F00S00C0.02756
T2F00S00C0.03543
T3F00S00C0.04331
T4F00S00C0.04724
T5F00S00C0.15748
%
T01
X0488189Y0208504
Y0228504
X0490472Y030315
X0470472
X0438976Y0299055
X042126Y0298898
X0403543Y0299055
X034252Y029315
X0295118Y0312992
X0315118
X034252Y031315
X0403543Y0319055
X042126Y0318898
X0438976Y0319055
X0435039Y0338425
X0452756Y0338268
Y0358268
X0435039Y0358425
X0470472Y0358268
X0470315Y0338583
Y0320866
X0490315
Y0338583
X0490472Y0358268
T02
X0507874Y0208504
Y0218504
Y0228504
Y0251811
Y0261811
Y0271811
X0492323Y0273622
Y0259843
Y0246063
Y0287402
X0507874Y0299055
Y0309055
X046437Y0287402
Y0273622
Y0259843
Y0246063
X0323465Y0251496
X0313465
Y0281496
X0323465
Y0295276
X0313465
X0303465
X0293465
X0283465
X0273465
X0263465
X0253465
Y0281496
X0263465
X0273465
X0283465
X0293465
X0303465
Y0251496
X0293465
X0283465
X0273465
X0263465
X0253465
X0253622Y0238189
X0263622
X0273622
X0283622
X0293622
X0303622
X0309055Y0340551
Y0360236
X026378Y0348425
Y032874
X0354331Y0340551
Y0360236
X0399606
Y0340551
X0507874Y0319055
T03
X0354331Y0245906
Y0255906
Y0265906
X0393701Y0265748
Y0255748
Y0245748
T04
X0377953Y0293307
Y0303307
X0431102Y0265906
Y0255906
Y0245906
X0377953Y0313307
T05
X0492673Y0186122
X0264327
Y0379035
X0492673
M30
