G04*
G04 #@! TF.GenerationSoftware,Altium Limited,Altium Designer,20.2.6 (244)*
G04*
G04 Layer_Color=128*
%FSLAX25Y25*%
%MOIN*%
G70*
G04*
G04 #@! TF.SameCoordinates,D736F6B9-9090-4B46-9E75-5C41576542F1*
G04*
G04*
G04 #@! TF.FilePolarity,Positive*
G04*
G01*
G75*
%ADD41C,0.00200*%
D41*
X375591Y293307D02*
X380315D01*
X377953Y290945D02*
Y295669D01*
X375591Y303307D02*
X380315D01*
X377953Y300945D02*
Y305669D01*
X375591Y313307D02*
X380315D01*
X377953Y310945D02*
Y315669D01*
X352559Y360236D02*
X356102D01*
X354331Y358465D02*
Y362008D01*
X352559Y340551D02*
X356102D01*
X354331Y338780D02*
Y342323D01*
X352166Y265906D02*
X356496D01*
X354331Y263740D02*
Y268071D01*
X352166Y255906D02*
X356496D01*
X354331Y253740D02*
Y258071D01*
X352166Y245906D02*
X356496D01*
X354331Y243740D02*
Y248071D01*
X391535Y265748D02*
X395866D01*
X393701Y263583D02*
Y267913D01*
X391535Y255748D02*
X395866D01*
X393701Y253583D02*
Y257913D01*
X391535Y245748D02*
X395866D01*
X393701Y243583D02*
Y247913D01*
X428740Y245906D02*
X433465D01*
X431102Y243543D02*
Y248268D01*
X428740Y255906D02*
X433465D01*
X431102Y253543D02*
Y258268D01*
X428740Y265906D02*
X433465D01*
X431102Y263543D02*
Y268268D01*
X437598Y319055D02*
X440354D01*
X438976Y317677D02*
Y320433D01*
X437598Y299055D02*
X440354D01*
X438976Y297677D02*
Y300433D01*
X462598Y273622D02*
X466142D01*
X464370Y271850D02*
Y275394D01*
X490551Y273622D02*
X494094D01*
X492323Y271850D02*
Y275394D01*
X462598Y246063D02*
X466142D01*
X464370Y244291D02*
Y247835D01*
X490551Y246063D02*
X494094D01*
X492323Y244291D02*
Y247835D01*
X462598Y259843D02*
X466142D01*
X464370Y258071D02*
Y261614D01*
X490551Y259843D02*
X494094D01*
X492323Y258071D02*
Y261614D01*
X462598Y287402D02*
X466142D01*
X464370Y285630D02*
Y289173D01*
X490551Y287402D02*
X494094D01*
X492323Y285630D02*
Y289173D01*
X486811Y208504D02*
X489567D01*
X488189Y207126D02*
Y209882D01*
X486811Y228504D02*
X489567D01*
X488189Y227126D02*
Y229882D01*
X419882Y318898D02*
X422638D01*
X421260Y317520D02*
Y320276D01*
X419882Y298898D02*
X422638D01*
X421260Y297520D02*
Y300276D01*
X402166Y319055D02*
X404921D01*
X403543Y317677D02*
Y320433D01*
X402166Y299055D02*
X404921D01*
X403543Y297677D02*
Y300433D01*
X506102Y251811D02*
X509646D01*
X507874Y250039D02*
Y253583D01*
X506102Y261811D02*
X509646D01*
X507874Y260039D02*
Y263583D01*
X506102Y271811D02*
X509646D01*
X507874Y270039D02*
Y273583D01*
X506102Y208504D02*
X509646D01*
X507874Y206732D02*
Y210276D01*
X506102Y218504D02*
X509646D01*
X507874Y216732D02*
Y220276D01*
X506102Y228504D02*
X509646D01*
X507874Y226732D02*
Y230276D01*
X469094Y303150D02*
X471850D01*
X470472Y301772D02*
Y304528D01*
X489094Y303150D02*
X491850D01*
X490472Y301772D02*
Y304528D01*
X468937Y320866D02*
X471693D01*
X470315Y319488D02*
Y322244D01*
X488937Y320866D02*
X491693D01*
X490315Y319488D02*
Y322244D01*
X433661Y358425D02*
X436417D01*
X435039Y357047D02*
Y359803D01*
X433661Y338425D02*
X436417D01*
X435039Y337047D02*
Y339803D01*
X468937Y338583D02*
X471693D01*
X470315Y337205D02*
Y339961D01*
X488937Y338583D02*
X491693D01*
X490315Y337205D02*
Y339961D01*
X469094Y358268D02*
X471850D01*
X470472Y356890D02*
Y359646D01*
X489094Y358268D02*
X491850D01*
X490472Y356890D02*
Y359646D01*
X301850Y238189D02*
X305394D01*
X303622Y236417D02*
Y239961D01*
X291850Y238189D02*
X295394D01*
X293622Y236417D02*
Y239961D01*
X281850Y238189D02*
X285394D01*
X283622Y236417D02*
Y239961D01*
X271850Y238189D02*
X275394D01*
X273622Y236417D02*
Y239961D01*
X261850Y238189D02*
X265394D01*
X263622Y236417D02*
Y239961D01*
X251850Y238189D02*
X255394D01*
X253622Y236417D02*
Y239961D01*
X321693Y281496D02*
X325236D01*
X323465Y279724D02*
Y283268D01*
X311693Y281496D02*
X315236D01*
X313465Y279724D02*
Y283268D01*
X301693Y281496D02*
X305236D01*
X303465Y279724D02*
Y283268D01*
X291693Y281496D02*
X295236D01*
X293465Y279724D02*
Y283268D01*
X281693Y281496D02*
X285236D01*
X283465Y279724D02*
Y283268D01*
X271693Y281496D02*
X275236D01*
X273465Y279724D02*
Y283268D01*
X261693Y281496D02*
X265236D01*
X263465Y279724D02*
Y283268D01*
X251693Y281496D02*
X255236D01*
X253465Y279724D02*
Y283268D01*
X261693Y251496D02*
X265236D01*
X263465Y249724D02*
Y253268D01*
X271693Y251496D02*
X275236D01*
X273465Y249724D02*
Y253268D01*
X281693Y251496D02*
X285236D01*
X283465Y249724D02*
Y253268D01*
X291693Y251496D02*
X295236D01*
X293465Y249724D02*
Y253268D01*
X301693Y251496D02*
X305236D01*
X303465Y249724D02*
Y253268D01*
X311693Y251496D02*
X315236D01*
X313465Y249724D02*
Y253268D01*
X321693Y251496D02*
X325236D01*
X323465Y249724D02*
Y253268D01*
X251693Y251496D02*
X255236D01*
X253465Y249724D02*
Y253268D01*
X256453Y186122D02*
X272201D01*
X264327Y178248D02*
Y193996D01*
X484799Y186122D02*
X500547D01*
X492673Y178248D02*
Y193996D01*
X484799Y379035D02*
X500547D01*
X492673Y371161D02*
Y386909D01*
X256453Y379035D02*
X272201D01*
X264327Y371161D02*
Y386909D01*
X341142Y313150D02*
X343898D01*
X342520Y311772D02*
Y314528D01*
X341142Y293150D02*
X343898D01*
X342520Y291772D02*
Y294528D01*
X313740Y312992D02*
X316496D01*
X315118Y311614D02*
Y314370D01*
X293740Y312992D02*
X296496D01*
X295118Y311614D02*
Y314370D01*
X451378Y358268D02*
X454134D01*
X452756Y356890D02*
Y359646D01*
X451378Y338268D02*
X454134D01*
X452756Y336890D02*
Y339646D01*
X397835Y360236D02*
X401378D01*
X399606Y358465D02*
Y362008D01*
X397835Y340551D02*
X401378D01*
X399606Y338780D02*
Y342323D01*
X307284Y360236D02*
X310827D01*
X309055Y358465D02*
Y362008D01*
X307284Y340551D02*
X310827D01*
X309055Y338780D02*
Y342323D01*
X262008Y348425D02*
X265551D01*
X263780Y346654D02*
Y350197D01*
X262008Y328740D02*
X265551D01*
X263780Y326969D02*
Y330512D01*
X506102Y299055D02*
X509646D01*
X507874Y297284D02*
Y300827D01*
X506102Y309055D02*
X509646D01*
X507874Y307284D02*
Y310827D01*
X506102Y319055D02*
X509646D01*
X507874Y317284D02*
Y320827D01*
X321693Y295276D02*
X325236D01*
X323465Y293504D02*
Y297047D01*
X311693Y295276D02*
X315236D01*
X313465Y293504D02*
Y297047D01*
X301693Y295276D02*
X305236D01*
X303465Y293504D02*
Y297047D01*
X291693Y295276D02*
X295236D01*
X293465Y293504D02*
Y297047D01*
X281693Y295276D02*
X285236D01*
X283465Y293504D02*
Y297047D01*
X271693Y295276D02*
X275236D01*
X273465Y293504D02*
Y297047D01*
X261693Y295276D02*
X265236D01*
X263465Y293504D02*
Y297047D01*
X251693Y295276D02*
X255236D01*
X253465Y293504D02*
Y297047D01*
M02*
