G04*
G04 #@! TF.GenerationSoftware,Altium Limited,Altium Designer,20.2.6 (244)*
G04*
G04 Layer_Physical_Order=2*
G04 Layer_Color=16711680*
%FSLAX25Y25*%
%MOIN*%
G70*
G04*
G04 #@! TF.SameCoordinates,D736F6B9-9090-4B46-9E75-5C41576542F1*
G04*
G04*
G04 #@! TF.FilePolarity,Positive*
G04*
G01*
G75*
%ADD28C,0.02000*%
%ADD29R,0.07087X0.07087*%
%ADD30C,0.07087*%
%ADD31C,0.05906*%
%ADD32C,0.06693*%
%ADD33R,0.06693X0.06693*%
%ADD34C,0.04724*%
%ADD35R,0.05906X0.05906*%
%ADD36R,0.05906X0.05906*%
%ADD37R,0.05512X0.05512*%
%ADD38C,0.05512*%
%ADD39C,0.15748*%
G36*
X503282Y402418D02*
X505933Y401708D01*
X508421Y400548D01*
X510670Y398973D01*
X512611Y397032D01*
X514185Y394783D01*
X515345Y392296D01*
X516056Y389644D01*
X516295Y386909D01*
Y178248D01*
X516056Y175513D01*
X515345Y172862D01*
X514185Y170374D01*
X512611Y168125D01*
X510670Y166184D01*
X508421Y164610D01*
X505933Y163450D01*
X503282Y162739D01*
X500547Y162500D01*
X476925D01*
Y221555D01*
X280075D01*
Y162500D01*
X256453D01*
X253718Y162739D01*
X251067Y163450D01*
X248579Y164610D01*
X246330Y166184D01*
X244389Y168125D01*
X242814Y170374D01*
X241654Y172862D01*
X240944Y175513D01*
X240705Y178248D01*
Y386909D01*
X240944Y389644D01*
X241654Y392296D01*
X242814Y394783D01*
X244389Y397032D01*
X246330Y398973D01*
X248579Y400548D01*
X251067Y401708D01*
X253718Y402418D01*
X256453Y402657D01*
X287949D01*
Y382972D01*
X469051D01*
Y402657D01*
X500547D01*
X503282Y402418D01*
D02*
G37*
%LPC*%
G36*
X492673Y387952D02*
X490934Y387781D01*
X489261Y387274D01*
X487719Y386450D01*
X486368Y385341D01*
X485259Y383989D01*
X484435Y382448D01*
X483928Y380775D01*
X483756Y379035D01*
X483928Y377296D01*
X484435Y375623D01*
X485259Y374081D01*
X486368Y372730D01*
X487719Y371621D01*
X489261Y370797D01*
X490934Y370290D01*
X492673Y370118D01*
X494413Y370290D01*
X496086Y370797D01*
X497627Y371621D01*
X498978Y372730D01*
X500087Y374081D01*
X500911Y375623D01*
X501419Y377296D01*
X501590Y379035D01*
X501419Y380775D01*
X500911Y382448D01*
X500087Y383989D01*
X498978Y385341D01*
X497627Y386450D01*
X496086Y387274D01*
X494413Y387781D01*
X492673Y387952D01*
D02*
G37*
G36*
X264327D02*
X262587Y387781D01*
X260914Y387274D01*
X259373Y386450D01*
X258022Y385341D01*
X256913Y383989D01*
X256089Y382448D01*
X255581Y380775D01*
X255410Y379035D01*
X255581Y377296D01*
X256089Y375623D01*
X256913Y374081D01*
X258022Y372730D01*
X259373Y371621D01*
X260914Y370797D01*
X262587Y370290D01*
X264327Y370118D01*
X266066Y370290D01*
X267739Y370797D01*
X269281Y371621D01*
X270632Y372730D01*
X271741Y374081D01*
X272565Y375623D01*
X273072Y377296D01*
X273244Y379035D01*
X273072Y380775D01*
X272565Y382448D01*
X271741Y383989D01*
X270632Y385341D01*
X269281Y386450D01*
X267739Y387274D01*
X266066Y387781D01*
X264327Y387952D01*
D02*
G37*
G36*
X399606Y364223D02*
X398574Y364087D01*
X397613Y363689D01*
X396787Y363055D01*
X396189Y362275D01*
X357748D01*
X357150Y363055D01*
X356324Y363689D01*
X355363Y364087D01*
X354331Y364223D01*
X353299Y364087D01*
X352337Y363689D01*
X351512Y363055D01*
X350878Y362230D01*
X350480Y361268D01*
X350344Y360236D01*
X350480Y359204D01*
X350878Y358243D01*
X351512Y357417D01*
X352337Y356784D01*
X353299Y356385D01*
X354331Y356249D01*
X355363Y356385D01*
X356324Y356784D01*
X357150Y357417D01*
X357748Y358197D01*
X396189D01*
X396787Y357417D01*
X397613Y356784D01*
X398574Y356385D01*
X399606Y356249D01*
X400638Y356385D01*
X401600Y356784D01*
X402425Y357417D01*
X403059Y358243D01*
X403457Y359204D01*
X403593Y360236D01*
X403457Y361268D01*
X403059Y362230D01*
X402425Y363055D01*
X401600Y363689D01*
X400638Y364087D01*
X399606Y364223D01*
D02*
G37*
G36*
X309055D02*
X308023Y364087D01*
X307062Y363689D01*
X306236Y363055D01*
X305638Y362275D01*
X275591D01*
X275591Y362275D01*
X274810Y362120D01*
X274149Y361678D01*
X264754Y352284D01*
X263780Y352412D01*
X262748Y352276D01*
X261786Y351878D01*
X260961Y351244D01*
X260327Y350419D01*
X259929Y349457D01*
X259793Y348425D01*
X259929Y347393D01*
X260327Y346432D01*
X260961Y345606D01*
X261786Y344972D01*
X262748Y344574D01*
X263780Y344438D01*
X264811Y344574D01*
X265773Y344972D01*
X266599Y345606D01*
X267232Y346432D01*
X267631Y347393D01*
X267766Y348425D01*
X267638Y349400D01*
X276435Y358197D01*
X305638D01*
X306236Y357417D01*
X307062Y356784D01*
X308023Y356385D01*
X309055Y356249D01*
X310030Y356378D01*
X317249Y349158D01*
X317249Y349158D01*
X317911Y348716D01*
X318691Y348561D01*
X427214D01*
X427995Y348716D01*
X428656Y349158D01*
X434591Y355093D01*
X435039Y355034D01*
X435917Y355150D01*
X436735Y355488D01*
X437437Y356027D01*
X437713Y356386D01*
X443174D01*
X443177Y356384D01*
X443957Y356229D01*
X450083D01*
X450358Y355870D01*
X451060Y355331D01*
X451878Y354992D01*
X452756Y354877D01*
X453634Y354992D01*
X454452Y355331D01*
X455154Y355870D01*
X455693Y356572D01*
X456032Y357390D01*
X456147Y358268D01*
X456032Y359145D01*
X455693Y359963D01*
X455154Y360666D01*
X454452Y361205D01*
X453634Y361543D01*
X452756Y361659D01*
X451878Y361543D01*
X451060Y361205D01*
X450358Y360666D01*
X450083Y360307D01*
X444584D01*
X444580Y360309D01*
X443800Y360464D01*
X437713D01*
X437437Y360823D01*
X436735Y361362D01*
X435917Y361701D01*
X435039Y361816D01*
X434162Y361701D01*
X433344Y361362D01*
X432641Y360823D01*
X432102Y360121D01*
X431764Y359303D01*
X431648Y358425D01*
X431707Y357977D01*
X426369Y352639D01*
X319536D01*
X312914Y359261D01*
X313042Y360236D01*
X312906Y361268D01*
X312508Y362230D01*
X311874Y363055D01*
X311049Y363689D01*
X310087Y364087D01*
X309055Y364223D01*
D02*
G37*
G36*
X490972Y361593D02*
Y358768D01*
X493798D01*
X493748Y359145D01*
X493409Y359963D01*
X492870Y360666D01*
X492168Y361205D01*
X491350Y361543D01*
X490972Y361593D01*
D02*
G37*
G36*
X489972D02*
X489595Y361543D01*
X488777Y361205D01*
X488074Y360666D01*
X487535Y359963D01*
X487197Y359145D01*
X487147Y358768D01*
X489972D01*
Y361593D01*
D02*
G37*
G36*
X493798Y357768D02*
X490972D01*
Y354942D01*
X491350Y354992D01*
X492168Y355331D01*
X492870Y355870D01*
X493409Y356572D01*
X493748Y357390D01*
X493798Y357768D01*
D02*
G37*
G36*
X489972D02*
X487147D01*
X487197Y357390D01*
X487535Y356572D01*
X488074Y355870D01*
X488777Y355331D01*
X489595Y354992D01*
X489972Y354942D01*
Y357768D01*
D02*
G37*
G36*
X470472Y361659D02*
X469595Y361543D01*
X468777Y361205D01*
X468074Y360666D01*
X467535Y359963D01*
X467197Y359145D01*
X467081Y358268D01*
X467197Y357390D01*
X467535Y356572D01*
X468074Y355870D01*
X468777Y355331D01*
X469595Y354992D01*
X470472Y354877D01*
X471350Y354992D01*
X472168Y355331D01*
X472870Y355870D01*
X473409Y356572D01*
X473748Y357390D01*
X473864Y358268D01*
X473748Y359145D01*
X473409Y359963D01*
X472870Y360666D01*
X472168Y361205D01*
X471350Y361543D01*
X470472Y361659D01*
D02*
G37*
G36*
X400106Y344472D02*
Y341051D01*
X403527D01*
X403457Y341583D01*
X403059Y342545D01*
X402425Y343370D01*
X401600Y344004D01*
X400638Y344402D01*
X400106Y344472D01*
D02*
G37*
G36*
X354831D02*
Y341051D01*
X358252D01*
X358182Y341583D01*
X357784Y342545D01*
X357150Y343370D01*
X356324Y344004D01*
X355363Y344402D01*
X354831Y344472D01*
D02*
G37*
G36*
X309555D02*
Y341051D01*
X312976D01*
X312906Y341583D01*
X312508Y342545D01*
X311874Y343370D01*
X311049Y344004D01*
X310087Y344402D01*
X309555Y344472D01*
D02*
G37*
G36*
X399106D02*
X398574Y344402D01*
X397613Y344004D01*
X396787Y343370D01*
X396154Y342545D01*
X395755Y341583D01*
X395685Y341051D01*
X399106D01*
Y344472D01*
D02*
G37*
G36*
X353831D02*
X353299Y344402D01*
X352337Y344004D01*
X351512Y343370D01*
X350878Y342545D01*
X350480Y341583D01*
X350410Y341051D01*
X353831D01*
Y344472D01*
D02*
G37*
G36*
X308555D02*
X308023Y344402D01*
X307062Y344004D01*
X306236Y343370D01*
X305603Y342545D01*
X305204Y341583D01*
X305134Y341051D01*
X308555D01*
Y344472D01*
D02*
G37*
G36*
X490815Y341908D02*
Y339083D01*
X493640D01*
X493591Y339460D01*
X493252Y340278D01*
X492713Y340981D01*
X492011Y341519D01*
X491193Y341858D01*
X490815Y341908D01*
D02*
G37*
G36*
X489815D02*
X489437Y341858D01*
X488619Y341519D01*
X487917Y340981D01*
X487378Y340278D01*
X487039Y339460D01*
X486990Y339083D01*
X489815D01*
Y341908D01*
D02*
G37*
G36*
X435539Y341751D02*
Y338925D01*
X438365D01*
X438315Y339303D01*
X437976Y340121D01*
X437437Y340823D01*
X436735Y341362D01*
X435917Y341701D01*
X435539Y341751D01*
D02*
G37*
G36*
X434539D02*
X434162Y341701D01*
X433344Y341362D01*
X432641Y340823D01*
X432102Y340121D01*
X431764Y339303D01*
X431714Y338925D01*
X434539D01*
Y341751D01*
D02*
G37*
G36*
X453256Y341593D02*
Y338768D01*
X456081D01*
X456032Y339145D01*
X455693Y339963D01*
X455154Y340666D01*
X454452Y341205D01*
X453634Y341544D01*
X453256Y341593D01*
D02*
G37*
G36*
X452256D02*
X451878Y341544D01*
X451060Y341205D01*
X450358Y340666D01*
X449819Y339963D01*
X449480Y339145D01*
X449431Y338768D01*
X452256D01*
Y341593D01*
D02*
G37*
G36*
X403527Y340051D02*
X400106D01*
Y336630D01*
X400638Y336700D01*
X401600Y337099D01*
X402425Y337732D01*
X403059Y338558D01*
X403457Y339519D01*
X403527Y340051D01*
D02*
G37*
G36*
X358252D02*
X354831D01*
Y336630D01*
X355363Y336700D01*
X356324Y337099D01*
X357150Y337732D01*
X357784Y338558D01*
X358182Y339519D01*
X358252Y340051D01*
D02*
G37*
G36*
X312976D02*
X309555D01*
Y336630D01*
X310087Y336700D01*
X311049Y337099D01*
X311874Y337732D01*
X312508Y338558D01*
X312906Y339519D01*
X312976Y340051D01*
D02*
G37*
G36*
X399106D02*
X395685D01*
X395755Y339519D01*
X396154Y338558D01*
X396787Y337732D01*
X397613Y337099D01*
X398574Y336700D01*
X399106Y336630D01*
Y340051D01*
D02*
G37*
G36*
X353831D02*
X350410D01*
X350480Y339519D01*
X350878Y338558D01*
X351512Y337732D01*
X352337Y337099D01*
X353299Y336700D01*
X353831Y336630D01*
Y340051D01*
D02*
G37*
G36*
X308555D02*
X305134D01*
X305204Y339519D01*
X305603Y338558D01*
X306236Y337732D01*
X307062Y337099D01*
X308023Y336700D01*
X308555Y336630D01*
Y340051D01*
D02*
G37*
G36*
X493640Y338083D02*
X490815D01*
Y335257D01*
X491193Y335307D01*
X492011Y335646D01*
X492713Y336185D01*
X493252Y336887D01*
X493591Y337705D01*
X493640Y338083D01*
D02*
G37*
G36*
X489815D02*
X486990D01*
X487039Y337705D01*
X487378Y336887D01*
X487917Y336185D01*
X488619Y335646D01*
X489437Y335307D01*
X489815Y335257D01*
Y338083D01*
D02*
G37*
G36*
X470315Y341974D02*
X469437Y341858D01*
X468619Y341519D01*
X467917Y340981D01*
X467378Y340278D01*
X467039Y339460D01*
X466924Y338583D01*
X467039Y337705D01*
X467378Y336887D01*
X467917Y336185D01*
X468619Y335646D01*
X469437Y335307D01*
X470315Y335191D01*
X471193Y335307D01*
X472011Y335646D01*
X472713Y336185D01*
X473252Y336887D01*
X473591Y337705D01*
X473706Y338583D01*
X473591Y339460D01*
X473252Y340278D01*
X472713Y340981D01*
X472011Y341519D01*
X471193Y341858D01*
X470315Y341974D01*
D02*
G37*
G36*
X438365Y337925D02*
X435539D01*
Y335100D01*
X435917Y335150D01*
X436735Y335488D01*
X437437Y336027D01*
X437976Y336730D01*
X438315Y337547D01*
X438365Y337925D01*
D02*
G37*
G36*
X434539D02*
X431714D01*
X431764Y337547D01*
X432102Y336730D01*
X432641Y336027D01*
X433344Y335488D01*
X434162Y335150D01*
X434539Y335100D01*
Y337925D01*
D02*
G37*
G36*
X456081Y337768D02*
X453256D01*
Y334942D01*
X453634Y334992D01*
X454452Y335331D01*
X455154Y335870D01*
X455693Y336572D01*
X456032Y337390D01*
X456081Y337768D01*
D02*
G37*
G36*
X452256D02*
X449431D01*
X449480Y337390D01*
X449819Y336572D01*
X450358Y335870D01*
X451060Y335331D01*
X451878Y334992D01*
X452256Y334942D01*
Y337768D01*
D02*
G37*
G36*
X264280Y332661D02*
Y329240D01*
X267701D01*
X267631Y329772D01*
X267232Y330734D01*
X266599Y331559D01*
X265773Y332193D01*
X264811Y332591D01*
X264280Y332661D01*
D02*
G37*
G36*
X263280D02*
X262748Y332591D01*
X261786Y332193D01*
X260961Y331559D01*
X260327Y330734D01*
X259929Y329772D01*
X259859Y329240D01*
X263280D01*
Y332661D01*
D02*
G37*
G36*
X267701Y328240D02*
X264280D01*
Y324819D01*
X264811Y324889D01*
X265773Y325288D01*
X266599Y325921D01*
X267232Y326747D01*
X267631Y327708D01*
X267701Y328240D01*
D02*
G37*
G36*
X263280D02*
X259859D01*
X259929Y327708D01*
X260327Y326747D01*
X260961Y325921D01*
X261786Y325288D01*
X262748Y324889D01*
X263280Y324819D01*
Y328240D01*
D02*
G37*
G36*
X490815Y324192D02*
Y321366D01*
X493640D01*
X493591Y321744D01*
X493252Y322562D01*
X492713Y323264D01*
X492011Y323803D01*
X491193Y324142D01*
X490815Y324192D01*
D02*
G37*
G36*
X489815D02*
X489437Y324142D01*
X488619Y323803D01*
X487917Y323264D01*
X487378Y322562D01*
X487039Y321744D01*
X486990Y321366D01*
X489815D01*
Y324192D01*
D02*
G37*
G36*
X438976Y322446D02*
X438099Y322331D01*
X437281Y321992D01*
X436578Y321453D01*
X436303Y321094D01*
X430158D01*
X429377Y320939D01*
X429374Y320937D01*
X423933D01*
X423658Y321296D01*
X422955Y321834D01*
X422137Y322173D01*
X421260Y322289D01*
X420382Y322173D01*
X419564Y321834D01*
X418862Y321296D01*
X418323Y320593D01*
X417984Y319775D01*
X417869Y318898D01*
X417984Y318020D01*
X418323Y317202D01*
X418862Y316500D01*
X419564Y315961D01*
X420382Y315622D01*
X421260Y315506D01*
X422137Y315622D01*
X422955Y315961D01*
X423658Y316500D01*
X423933Y316858D01*
X430000D01*
X430780Y317014D01*
X430784Y317016D01*
X436303D01*
X436578Y316657D01*
X437281Y316118D01*
X438099Y315779D01*
X438976Y315664D01*
X439854Y315779D01*
X440672Y316118D01*
X441374Y316657D01*
X441913Y317360D01*
X442252Y318178D01*
X442368Y319055D01*
X442252Y319933D01*
X441913Y320751D01*
X441374Y321453D01*
X440672Y321992D01*
X439854Y322331D01*
X438976Y322446D01*
D02*
G37*
G36*
X508374Y322976D02*
Y319555D01*
X511795D01*
X511725Y320087D01*
X511327Y321049D01*
X510693Y321874D01*
X509867Y322508D01*
X508906Y322906D01*
X508374Y322976D01*
D02*
G37*
G36*
X507374D02*
X506842Y322906D01*
X505881Y322508D01*
X505055Y321874D01*
X504421Y321049D01*
X504023Y320087D01*
X503953Y319555D01*
X507374D01*
Y322976D01*
D02*
G37*
G36*
X403543Y322446D02*
X402666Y322331D01*
X401848Y321992D01*
X401145Y321453D01*
X400870Y321094D01*
X383701D01*
X382921Y320939D01*
X382259Y320497D01*
X379391Y317629D01*
X379139Y317733D01*
X377953Y317889D01*
X376767Y317733D01*
X375661Y317276D01*
X374712Y316547D01*
X373984Y315598D01*
X373526Y314493D01*
X373370Y313307D01*
X373526Y312121D01*
X373984Y311016D01*
X374712Y310067D01*
X375661Y309338D01*
X376767Y308881D01*
X377953Y308724D01*
X379139Y308881D01*
X380244Y309338D01*
X381193Y310067D01*
X381921Y311016D01*
X382379Y312121D01*
X382535Y313307D01*
X382379Y314493D01*
X382275Y314745D01*
X384546Y317016D01*
X400870D01*
X401145Y316657D01*
X401848Y316118D01*
X402666Y315779D01*
X403543Y315664D01*
X403992Y315723D01*
X413657Y306058D01*
X414318Y305616D01*
X415099Y305461D01*
X440055D01*
X441361Y304155D01*
Y302029D01*
X440912Y301808D01*
X440672Y301992D01*
X439854Y302331D01*
X439476Y302381D01*
Y299055D01*
Y295730D01*
X439854Y295779D01*
X440672Y296118D01*
X440912Y296303D01*
X441361Y296082D01*
Y279048D01*
X432541Y270228D01*
X432288Y270332D01*
X431102Y270488D01*
X429916Y270332D01*
X428811Y269874D01*
X427862Y269146D01*
X427134Y268197D01*
X426676Y267092D01*
X426520Y265906D01*
X426676Y264720D01*
X427134Y263614D01*
X427862Y262665D01*
X428811Y261937D01*
X429916Y261479D01*
X431102Y261323D01*
X432288Y261479D01*
X433394Y261937D01*
X434343Y262665D01*
X435071Y263614D01*
X435529Y264720D01*
X435685Y265906D01*
X435529Y267092D01*
X435424Y267344D01*
X444842Y276761D01*
X445284Y277423D01*
X445439Y278203D01*
Y305000D01*
X445284Y305780D01*
X444842Y306442D01*
X442342Y308942D01*
X441680Y309384D01*
X440900Y309539D01*
X415943D01*
X406876Y318607D01*
X406935Y319055D01*
X406819Y319933D01*
X406480Y320751D01*
X405941Y321453D01*
X405239Y321992D01*
X404421Y322331D01*
X403543Y322446D01*
D02*
G37*
G36*
X493640Y320366D02*
X490815D01*
Y317541D01*
X491193Y317590D01*
X492011Y317929D01*
X492713Y318468D01*
X493252Y319171D01*
X493591Y319988D01*
X493640Y320366D01*
D02*
G37*
G36*
X489815D02*
X486990D01*
X487039Y319988D01*
X487378Y319171D01*
X487917Y318468D01*
X488619Y317929D01*
X489437Y317590D01*
X489815Y317541D01*
Y320366D01*
D02*
G37*
G36*
X470315Y324257D02*
X469437Y324142D01*
X468619Y323803D01*
X467917Y323264D01*
X467378Y322562D01*
X467039Y321744D01*
X466924Y320866D01*
X467039Y319988D01*
X467378Y319171D01*
X467917Y318468D01*
X468619Y317929D01*
X469437Y317590D01*
X470315Y317475D01*
X471193Y317590D01*
X472011Y317929D01*
X472713Y318468D01*
X473252Y319171D01*
X473591Y319988D01*
X473706Y320866D01*
X473591Y321744D01*
X473252Y322562D01*
X472713Y323264D01*
X472011Y323803D01*
X471193Y324142D01*
X470315Y324257D01*
D02*
G37*
G36*
X511795Y318555D02*
X508374D01*
Y315134D01*
X508906Y315204D01*
X509867Y315602D01*
X510693Y316236D01*
X511327Y317062D01*
X511725Y318023D01*
X511795Y318555D01*
D02*
G37*
G36*
X507374D02*
X503953D01*
X504023Y318023D01*
X504421Y317062D01*
X505055Y316236D01*
X505881Y315602D01*
X506842Y315204D01*
X507374Y315134D01*
Y318555D01*
D02*
G37*
G36*
X342520Y316541D02*
X341642Y316425D01*
X340824Y316087D01*
X340122Y315548D01*
X339846Y315189D01*
X328857D01*
X328077Y315034D01*
X328074Y315031D01*
X317791D01*
X317516Y315390D01*
X316814Y315929D01*
X315996Y316268D01*
X315118Y316383D01*
X314241Y316268D01*
X313423Y315929D01*
X312720Y315390D01*
X312181Y314688D01*
X311842Y313870D01*
X311727Y312992D01*
X311842Y312115D01*
X312181Y311297D01*
X312720Y310594D01*
X313423Y310055D01*
X314241Y309717D01*
X315118Y309601D01*
X315996Y309717D01*
X316814Y310055D01*
X317516Y310594D01*
X317791Y310953D01*
X328700D01*
X329480Y311108D01*
X329484Y311110D01*
X339846D01*
X340122Y310752D01*
X340824Y310213D01*
X341642Y309874D01*
X342520Y309758D01*
X343397Y309874D01*
X344215Y310213D01*
X344917Y310752D01*
X345457Y311454D01*
X345795Y312272D01*
X345911Y313150D01*
X345795Y314027D01*
X345457Y314845D01*
X344917Y315548D01*
X344215Y316087D01*
X343397Y316425D01*
X342520Y316541D01*
D02*
G37*
G36*
X295618Y316318D02*
Y313492D01*
X298444D01*
X298394Y313870D01*
X298055Y314688D01*
X297516Y315390D01*
X296814Y315929D01*
X295996Y316268D01*
X295618Y316318D01*
D02*
G37*
G36*
X294618D02*
X294240Y316268D01*
X293423Y315929D01*
X292720Y315390D01*
X292181Y314688D01*
X291843Y313870D01*
X291793Y313492D01*
X294618D01*
Y316318D01*
D02*
G37*
G36*
X298444Y312492D02*
X295618D01*
Y309667D01*
X295996Y309717D01*
X296814Y310055D01*
X297516Y310594D01*
X298055Y311297D01*
X298394Y312115D01*
X298444Y312492D01*
D02*
G37*
G36*
X294618D02*
X291793D01*
X291843Y312115D01*
X292181Y311297D01*
X292720Y310594D01*
X293423Y310055D01*
X294240Y309717D01*
X294618Y309667D01*
Y312492D01*
D02*
G37*
G36*
X507874Y313042D02*
X506842Y312906D01*
X505881Y312508D01*
X505055Y311874D01*
X504421Y311049D01*
X504023Y310087D01*
X503887Y309055D01*
X504023Y308023D01*
X504421Y307062D01*
X505055Y306236D01*
X505881Y305603D01*
X506842Y305204D01*
X507874Y305068D01*
X508906Y305204D01*
X509867Y305603D01*
X510693Y306236D01*
X511327Y307062D01*
X511725Y308023D01*
X511861Y309055D01*
X511725Y310087D01*
X511327Y311049D01*
X510693Y311874D01*
X509867Y312508D01*
X508906Y312906D01*
X507874Y313042D01*
D02*
G37*
G36*
X378453Y307824D02*
Y303807D01*
X382470D01*
X382379Y304493D01*
X381921Y305598D01*
X381193Y306547D01*
X380244Y307276D01*
X379139Y307733D01*
X378453Y307824D01*
D02*
G37*
G36*
X377453D02*
X376767Y307733D01*
X375661Y307276D01*
X374712Y306547D01*
X373984Y305598D01*
X373526Y304493D01*
X373436Y303807D01*
X377453D01*
Y307824D01*
D02*
G37*
G36*
X490972Y306475D02*
Y303650D01*
X493798D01*
X493748Y304027D01*
X493409Y304845D01*
X492870Y305548D01*
X492168Y306086D01*
X491350Y306425D01*
X490972Y306475D01*
D02*
G37*
G36*
X489972D02*
X489595Y306425D01*
X488777Y306086D01*
X488074Y305548D01*
X487535Y304845D01*
X487197Y304027D01*
X487147Y303650D01*
X489972D01*
Y306475D01*
D02*
G37*
G36*
X493798Y302650D02*
X490972D01*
Y299824D01*
X491350Y299874D01*
X492168Y300213D01*
X492870Y300752D01*
X493409Y301454D01*
X493748Y302272D01*
X493798Y302650D01*
D02*
G37*
G36*
X489972D02*
X487147D01*
X487197Y302272D01*
X487535Y301454D01*
X488074Y300752D01*
X488777Y300213D01*
X489595Y299874D01*
X489972Y299824D01*
Y302650D01*
D02*
G37*
G36*
X404043Y302381D02*
Y299555D01*
X406869D01*
X406819Y299933D01*
X406480Y300751D01*
X405941Y301453D01*
X405239Y301992D01*
X404421Y302331D01*
X404043Y302381D01*
D02*
G37*
G36*
X438476D02*
X438099Y302331D01*
X437281Y301992D01*
X436578Y301453D01*
X436039Y300751D01*
X435701Y299933D01*
X435651Y299555D01*
X438476D01*
Y302381D01*
D02*
G37*
G36*
X403043D02*
X402666Y302331D01*
X401848Y301992D01*
X401145Y301453D01*
X400606Y300751D01*
X400268Y299933D01*
X400218Y299555D01*
X403043D01*
Y302381D01*
D02*
G37*
G36*
X421760Y302223D02*
Y299398D01*
X424585D01*
X424536Y299775D01*
X424197Y300593D01*
X423658Y301296D01*
X422955Y301835D01*
X422137Y302173D01*
X421760Y302223D01*
D02*
G37*
G36*
X420760D02*
X420382Y302173D01*
X419564Y301835D01*
X418862Y301296D01*
X418323Y300593D01*
X417984Y299775D01*
X417934Y299398D01*
X420760D01*
Y302223D01*
D02*
G37*
G36*
X382470Y302807D02*
X378453D01*
Y298790D01*
X379139Y298881D01*
X380244Y299338D01*
X381193Y300067D01*
X381921Y301016D01*
X382379Y302121D01*
X382470Y302807D01*
D02*
G37*
G36*
X377453D02*
X373436D01*
X373526Y302121D01*
X373984Y301016D01*
X374712Y300067D01*
X375661Y299338D01*
X376767Y298881D01*
X377453Y298790D01*
Y302807D01*
D02*
G37*
G36*
X406869Y298555D02*
X404043D01*
Y295730D01*
X404421Y295779D01*
X405239Y296118D01*
X405941Y296657D01*
X406480Y297360D01*
X406819Y298178D01*
X406869Y298555D01*
D02*
G37*
G36*
X438476D02*
X435651D01*
X435701Y298178D01*
X436039Y297360D01*
X436578Y296657D01*
X437281Y296118D01*
X438099Y295779D01*
X438476Y295730D01*
Y298555D01*
D02*
G37*
G36*
X403043D02*
X400218D01*
X400268Y298178D01*
X400606Y297360D01*
X401145Y296657D01*
X401848Y296118D01*
X402666Y295779D01*
X403043Y295730D01*
Y298555D01*
D02*
G37*
G36*
X424585Y298398D02*
X421760D01*
Y295572D01*
X422137Y295622D01*
X422955Y295961D01*
X423658Y296500D01*
X424197Y297202D01*
X424536Y298020D01*
X424585Y298398D01*
D02*
G37*
G36*
X420760D02*
X417934D01*
X417984Y298020D01*
X418323Y297202D01*
X418862Y296500D01*
X419564Y295961D01*
X420382Y295622D01*
X420760Y295572D01*
Y298398D01*
D02*
G37*
G36*
X511827Y303008D02*
X503921D01*
Y295102D01*
X511827D01*
Y303008D01*
D02*
G37*
G36*
X343020Y296475D02*
Y293650D01*
X345845D01*
X345795Y294027D01*
X345457Y294845D01*
X344917Y295548D01*
X344215Y296087D01*
X343397Y296425D01*
X343020Y296475D01*
D02*
G37*
G36*
X342020D02*
X341642Y296425D01*
X340824Y296087D01*
X340122Y295548D01*
X339583Y294845D01*
X339244Y294027D01*
X339194Y293650D01*
X342020D01*
Y296475D01*
D02*
G37*
G36*
X327417Y299228D02*
X319512D01*
Y291323D01*
X327417D01*
Y299228D01*
D02*
G37*
G36*
X313465Y299262D02*
X312433Y299127D01*
X311471Y298728D01*
X310646Y298095D01*
X310012Y297269D01*
X309614Y296307D01*
X309478Y295276D01*
X309614Y294244D01*
X310012Y293282D01*
X310646Y292457D01*
X311471Y291823D01*
X312433Y291425D01*
X313465Y291289D01*
X314496Y291425D01*
X315458Y291823D01*
X316284Y292457D01*
X316917Y293282D01*
X317316Y294244D01*
X317452Y295276D01*
X317316Y296307D01*
X316917Y297269D01*
X316284Y298095D01*
X315458Y298728D01*
X314496Y299127D01*
X313465Y299262D01*
D02*
G37*
G36*
X303465D02*
X302433Y299127D01*
X301471Y298728D01*
X300645Y298095D01*
X300012Y297269D01*
X299614Y296307D01*
X299478Y295276D01*
X299614Y294244D01*
X300012Y293282D01*
X300645Y292457D01*
X301471Y291823D01*
X302433Y291425D01*
X303465Y291289D01*
X304497Y291425D01*
X305458Y291823D01*
X306284Y292457D01*
X306917Y293282D01*
X307316Y294244D01*
X307452Y295276D01*
X307316Y296307D01*
X306917Y297269D01*
X306284Y298095D01*
X305458Y298728D01*
X304497Y299127D01*
X303465Y299262D01*
D02*
G37*
G36*
X293465D02*
X292433Y299127D01*
X291471Y298728D01*
X290646Y298095D01*
X290012Y297269D01*
X289614Y296307D01*
X289478Y295276D01*
X289614Y294244D01*
X290012Y293282D01*
X290646Y292457D01*
X291471Y291823D01*
X292433Y291425D01*
X293465Y291289D01*
X294496Y291425D01*
X295458Y291823D01*
X296284Y292457D01*
X296917Y293282D01*
X297316Y294244D01*
X297451Y295276D01*
X297316Y296307D01*
X296917Y297269D01*
X296284Y298095D01*
X295458Y298728D01*
X294496Y299127D01*
X293465Y299262D01*
D02*
G37*
G36*
X283465D02*
X282433Y299127D01*
X281471Y298728D01*
X280645Y298095D01*
X280012Y297269D01*
X279614Y296307D01*
X279478Y295276D01*
X279614Y294244D01*
X280012Y293282D01*
X280645Y292457D01*
X281471Y291823D01*
X282433Y291425D01*
X283465Y291289D01*
X284496Y291425D01*
X285458Y291823D01*
X286284Y292457D01*
X286917Y293282D01*
X287316Y294244D01*
X287452Y295276D01*
X287316Y296307D01*
X286917Y297269D01*
X286284Y298095D01*
X285458Y298728D01*
X284496Y299127D01*
X283465Y299262D01*
D02*
G37*
G36*
X273465D02*
X272433Y299127D01*
X271471Y298728D01*
X270645Y298095D01*
X270012Y297269D01*
X269614Y296307D01*
X269478Y295276D01*
X269614Y294244D01*
X270012Y293282D01*
X270645Y292457D01*
X271471Y291823D01*
X272433Y291425D01*
X273465Y291289D01*
X274497Y291425D01*
X275458Y291823D01*
X276284Y292457D01*
X276917Y293282D01*
X277316Y294244D01*
X277451Y295276D01*
X277316Y296307D01*
X276917Y297269D01*
X276284Y298095D01*
X275458Y298728D01*
X274497Y299127D01*
X273465Y299262D01*
D02*
G37*
G36*
X263465D02*
X262433Y299127D01*
X261471Y298728D01*
X260646Y298095D01*
X260012Y297269D01*
X259614Y296307D01*
X259478Y295276D01*
X259614Y294244D01*
X260012Y293282D01*
X260646Y292457D01*
X261471Y291823D01*
X262433Y291425D01*
X263465Y291289D01*
X264496Y291425D01*
X265458Y291823D01*
X266284Y292457D01*
X266917Y293282D01*
X267316Y294244D01*
X267452Y295276D01*
X267316Y296307D01*
X266917Y297269D01*
X266284Y298095D01*
X265458Y298728D01*
X264496Y299127D01*
X263465Y299262D01*
D02*
G37*
G36*
X253465D02*
X252433Y299127D01*
X251471Y298728D01*
X250645Y298095D01*
X250012Y297269D01*
X249614Y296307D01*
X249478Y295276D01*
X249614Y294244D01*
X250012Y293282D01*
X250645Y292457D01*
X251471Y291823D01*
X252433Y291425D01*
X253465Y291289D01*
X254497Y291425D01*
X255458Y291823D01*
X256284Y292457D01*
X256917Y293282D01*
X257316Y294244D01*
X257452Y295276D01*
X257316Y296307D01*
X256917Y297269D01*
X256284Y298095D01*
X255458Y298728D01*
X254497Y299127D01*
X253465Y299262D01*
D02*
G37*
G36*
X345845Y292650D02*
X343020D01*
Y289824D01*
X343397Y289874D01*
X344215Y290213D01*
X344917Y290752D01*
X345457Y291454D01*
X345795Y292272D01*
X345845Y292650D01*
D02*
G37*
G36*
X342020D02*
X339194D01*
X339244Y292272D01*
X339583Y291454D01*
X340122Y290752D01*
X340824Y290213D01*
X341642Y289874D01*
X342020Y289824D01*
Y292650D01*
D02*
G37*
G36*
X382496Y297850D02*
X373410D01*
Y288764D01*
X382496D01*
Y297850D01*
D02*
G37*
G36*
X492323Y291389D02*
X491291Y291253D01*
X490329Y290854D01*
X489504Y290221D01*
X488870Y289395D01*
X488472Y288434D01*
X488336Y287402D01*
X488472Y286370D01*
X488870Y285408D01*
X489504Y284582D01*
X490329Y283949D01*
X491291Y283551D01*
X492323Y283415D01*
X493355Y283551D01*
X494316Y283949D01*
X495142Y284582D01*
X495776Y285408D01*
X496174Y286370D01*
X496310Y287402D01*
X496174Y288434D01*
X495776Y289395D01*
X495142Y290221D01*
X494316Y290854D01*
X493355Y291253D01*
X492323Y291389D01*
D02*
G37*
G36*
X327221Y285252D02*
X319709D01*
Y277740D01*
X327221D01*
Y285252D01*
D02*
G37*
G36*
X313465Y285284D02*
X312484Y285155D01*
X311570Y284777D01*
X310786Y284175D01*
X310184Y283390D01*
X309805Y282476D01*
X309676Y281496D01*
X309805Y280516D01*
X310184Y279602D01*
X310786Y278817D01*
X311570Y278215D01*
X312484Y277837D01*
X313465Y277708D01*
X314445Y277837D01*
X315359Y278215D01*
X316143Y278817D01*
X316745Y279602D01*
X317124Y280516D01*
X317253Y281496D01*
X317124Y282476D01*
X316745Y283390D01*
X316143Y284175D01*
X315359Y284777D01*
X314445Y285155D01*
X313465Y285284D01*
D02*
G37*
G36*
X303465D02*
X302484Y285155D01*
X301570Y284777D01*
X300786Y284175D01*
X300184Y283390D01*
X299805Y282476D01*
X299676Y281496D01*
X299805Y280516D01*
X300184Y279602D01*
X300786Y278817D01*
X301570Y278215D01*
X302484Y277837D01*
X303465Y277708D01*
X304445Y277837D01*
X305359Y278215D01*
X306143Y278817D01*
X306745Y279602D01*
X307124Y280516D01*
X307253Y281496D01*
X307124Y282476D01*
X306745Y283390D01*
X306143Y284175D01*
X305359Y284777D01*
X304445Y285155D01*
X303465Y285284D01*
D02*
G37*
G36*
X293465D02*
X292484Y285155D01*
X291570Y284777D01*
X290786Y284175D01*
X290184Y283390D01*
X289805Y282476D01*
X289676Y281496D01*
X289805Y280516D01*
X290184Y279602D01*
X290786Y278817D01*
X291570Y278215D01*
X292484Y277837D01*
X293465Y277708D01*
X294445Y277837D01*
X295359Y278215D01*
X296143Y278817D01*
X296745Y279602D01*
X297124Y280516D01*
X297253Y281496D01*
X297124Y282476D01*
X296745Y283390D01*
X296143Y284175D01*
X295359Y284777D01*
X294445Y285155D01*
X293465Y285284D01*
D02*
G37*
G36*
X283465D02*
X282484Y285155D01*
X281570Y284777D01*
X280786Y284175D01*
X280184Y283390D01*
X279805Y282476D01*
X279676Y281496D01*
X279805Y280516D01*
X280184Y279602D01*
X280786Y278817D01*
X281570Y278215D01*
X282484Y277837D01*
X283465Y277708D01*
X284445Y277837D01*
X285359Y278215D01*
X286143Y278817D01*
X286745Y279602D01*
X287124Y280516D01*
X287253Y281496D01*
X287124Y282476D01*
X286745Y283390D01*
X286143Y284175D01*
X285359Y284777D01*
X284445Y285155D01*
X283465Y285284D01*
D02*
G37*
G36*
X273465D02*
X272484Y285155D01*
X271570Y284777D01*
X270786Y284175D01*
X270184Y283390D01*
X269805Y282476D01*
X269676Y281496D01*
X269805Y280516D01*
X270184Y279602D01*
X270786Y278817D01*
X271570Y278215D01*
X272484Y277837D01*
X273465Y277708D01*
X274445Y277837D01*
X275359Y278215D01*
X276143Y278817D01*
X276745Y279602D01*
X277124Y280516D01*
X277253Y281496D01*
X277124Y282476D01*
X276745Y283390D01*
X276143Y284175D01*
X275359Y284777D01*
X274445Y285155D01*
X273465Y285284D01*
D02*
G37*
G36*
X263465D02*
X262484Y285155D01*
X261570Y284777D01*
X260786Y284175D01*
X260184Y283390D01*
X259805Y282476D01*
X259676Y281496D01*
X259805Y280516D01*
X260184Y279602D01*
X260786Y278817D01*
X261570Y278215D01*
X262484Y277837D01*
X263465Y277708D01*
X264445Y277837D01*
X265359Y278215D01*
X266143Y278817D01*
X266745Y279602D01*
X267124Y280516D01*
X267253Y281496D01*
X267124Y282476D01*
X266745Y283390D01*
X266143Y284175D01*
X265359Y284777D01*
X264445Y285155D01*
X263465Y285284D01*
D02*
G37*
G36*
X253465D02*
X252484Y285155D01*
X251570Y284777D01*
X250786Y284175D01*
X250184Y283390D01*
X249805Y282476D01*
X249676Y281496D01*
X249805Y280516D01*
X250184Y279602D01*
X250786Y278817D01*
X251570Y278215D01*
X252484Y277837D01*
X253465Y277708D01*
X254445Y277837D01*
X255359Y278215D01*
X256143Y278817D01*
X256745Y279602D01*
X257124Y280516D01*
X257253Y281496D01*
X257124Y282476D01*
X256745Y283390D01*
X256143Y284175D01*
X255359Y284777D01*
X254445Y285155D01*
X253465Y285284D01*
D02*
G37*
G36*
X492323Y277609D02*
X491291Y277473D01*
X490329Y277075D01*
X489504Y276441D01*
X488870Y275615D01*
X488472Y274654D01*
X488336Y273622D01*
X488472Y272590D01*
X488870Y271629D01*
X489504Y270803D01*
X490329Y270169D01*
X491291Y269771D01*
X492323Y269635D01*
X493355Y269771D01*
X494316Y270169D01*
X495142Y270803D01*
X495740Y271583D01*
X498255D01*
X499469Y270369D01*
X500131Y269927D01*
X500911Y269772D01*
X504456D01*
X505055Y268992D01*
X505881Y268358D01*
X506842Y267960D01*
X507874Y267824D01*
X508906Y267960D01*
X509867Y268358D01*
X510693Y268992D01*
X511327Y269818D01*
X511725Y270779D01*
X511861Y271811D01*
X511725Y272843D01*
X511327Y273804D01*
X510693Y274630D01*
X509867Y275264D01*
X508906Y275662D01*
X507874Y275798D01*
X506842Y275662D01*
X505881Y275264D01*
X505055Y274630D01*
X504456Y273850D01*
X501756D01*
X500542Y275064D01*
X499880Y275506D01*
X499100Y275661D01*
X495740D01*
X495142Y276441D01*
X494316Y277075D01*
X493355Y277473D01*
X492323Y277609D01*
D02*
G37*
G36*
X354331Y270290D02*
X353196Y270140D01*
X352139Y269702D01*
X351231Y269005D01*
X350534Y268098D01*
X350096Y267040D01*
X349947Y265906D01*
X350096Y264771D01*
X350534Y263714D01*
X351231Y262806D01*
X352139Y262109D01*
X353196Y261671D01*
X354331Y261522D01*
X355466Y261671D01*
X356523Y262109D01*
X357431Y262806D01*
X358127Y263714D01*
X358191Y263866D01*
X373274D01*
X373277Y263864D01*
X374058Y263709D01*
X389841D01*
X389904Y263556D01*
X390601Y262648D01*
X391509Y261951D01*
X392566Y261513D01*
X393701Y261364D01*
X394835Y261513D01*
X395893Y261951D01*
X396801Y262648D01*
X397497Y263556D01*
X397935Y264613D01*
X398085Y265748D01*
X397935Y266883D01*
X397497Y267940D01*
X396801Y268848D01*
X395893Y269545D01*
X394835Y269983D01*
X393701Y270132D01*
X392566Y269983D01*
X391509Y269545D01*
X390601Y268848D01*
X389904Y267940D01*
X389841Y267787D01*
X374684D01*
X374680Y267790D01*
X373900Y267945D01*
X358191D01*
X358127Y268098D01*
X357431Y269005D01*
X356523Y269702D01*
X355466Y270140D01*
X354331Y270290D01*
D02*
G37*
G36*
X507874Y265798D02*
X506842Y265662D01*
X505881Y265264D01*
X505055Y264630D01*
X504421Y263804D01*
X504023Y262843D01*
X503887Y261811D01*
X504023Y260779D01*
X504421Y259818D01*
X505055Y258992D01*
X505881Y258358D01*
X506842Y257960D01*
X507874Y257824D01*
X508906Y257960D01*
X509867Y258358D01*
X510693Y258992D01*
X511327Y259818D01*
X511725Y260779D01*
X511861Y261811D01*
X511725Y262843D01*
X511327Y263804D01*
X510693Y264630D01*
X509867Y265264D01*
X508906Y265662D01*
X507874Y265798D01*
D02*
G37*
G36*
X431602Y260422D02*
Y256406D01*
X435619D01*
X435529Y257092D01*
X435071Y258197D01*
X434343Y259146D01*
X433394Y259874D01*
X432288Y260332D01*
X431602Y260422D01*
D02*
G37*
G36*
X354831Y260224D02*
Y256406D01*
X358649D01*
X358565Y257040D01*
X358127Y258098D01*
X357431Y259005D01*
X356523Y259702D01*
X355466Y260140D01*
X354831Y260224D01*
D02*
G37*
G36*
X353831D02*
X353196Y260140D01*
X352139Y259702D01*
X351231Y259005D01*
X350534Y258098D01*
X350096Y257040D01*
X350013Y256406D01*
X353831D01*
Y260224D01*
D02*
G37*
G36*
X430602Y260422D02*
X429916Y260332D01*
X428811Y259874D01*
X427862Y259146D01*
X427134Y258197D01*
X426676Y257092D01*
X426586Y256406D01*
X430602D01*
Y260422D01*
D02*
G37*
G36*
X394201Y260066D02*
Y256248D01*
X398019D01*
X397935Y256883D01*
X397497Y257940D01*
X396801Y258848D01*
X395893Y259545D01*
X394835Y259983D01*
X394201Y260066D01*
D02*
G37*
G36*
X393201D02*
X392566Y259983D01*
X391509Y259545D01*
X390601Y258848D01*
X389904Y257940D01*
X389466Y256883D01*
X389383Y256248D01*
X393201D01*
Y260066D01*
D02*
G37*
G36*
X492323Y263829D02*
X491291Y263694D01*
X490329Y263295D01*
X489504Y262662D01*
X488870Y261836D01*
X488472Y260875D01*
X488336Y259843D01*
X488472Y258811D01*
X488870Y257849D01*
X489504Y257024D01*
X490329Y256390D01*
X491291Y255992D01*
X492323Y255856D01*
X493355Y255992D01*
X494316Y256390D01*
X495142Y257024D01*
X495776Y257849D01*
X496174Y258811D01*
X496310Y259843D01*
X496174Y260875D01*
X495776Y261836D01*
X495142Y262662D01*
X494316Y263295D01*
X493355Y263694D01*
X492323Y263829D01*
D02*
G37*
G36*
X323465Y255284D02*
X322484Y255155D01*
X321570Y254777D01*
X320786Y254175D01*
X320295Y253535D01*
X316634D01*
X316143Y254175D01*
X315359Y254777D01*
X314445Y255155D01*
X313465Y255284D01*
X312484Y255155D01*
X311570Y254777D01*
X310786Y254175D01*
X310184Y253390D01*
X309805Y252477D01*
X309676Y251496D01*
X309805Y250516D01*
X310184Y249602D01*
X310786Y248817D01*
X311570Y248215D01*
X312484Y247837D01*
X313465Y247708D01*
X314445Y247837D01*
X315359Y248215D01*
X316143Y248817D01*
X316634Y249457D01*
X320295D01*
X320786Y248817D01*
X321570Y248215D01*
X322484Y247837D01*
X323465Y247708D01*
X324445Y247837D01*
X325359Y248215D01*
X326143Y248817D01*
X326745Y249602D01*
X327124Y250516D01*
X327253Y251496D01*
X327124Y252477D01*
X326745Y253390D01*
X326143Y254175D01*
X325359Y254777D01*
X324445Y255155D01*
X323465Y255284D01*
D02*
G37*
G36*
X470472Y306541D02*
X469595Y306425D01*
X468777Y306086D01*
X468074Y305548D01*
X467535Y304845D01*
X467197Y304027D01*
X467081Y303150D01*
X467197Y302272D01*
X467361Y301876D01*
Y291354D01*
X460417D01*
Y283449D01*
X467361D01*
Y277575D01*
X460417D01*
Y275661D01*
X458819D01*
X458038Y275506D01*
X457377Y275064D01*
X434956Y252643D01*
X434579Y252973D01*
X435071Y253614D01*
X435529Y254720D01*
X435619Y255406D01*
X431602D01*
Y251389D01*
X432288Y251479D01*
X433394Y251937D01*
X434035Y252429D01*
X434365Y252052D01*
X432762Y250449D01*
X426559D01*
Y242401D01*
X399931D01*
X398047Y244285D01*
Y250095D01*
X389354D01*
Y241402D01*
X395163D01*
X396702Y239863D01*
X396510Y239401D01*
X363719D01*
X358677Y244443D01*
Y250252D01*
X349984D01*
Y241559D01*
X355793D01*
X361432Y235920D01*
X362094Y235478D01*
X362874Y235323D01*
X455669D01*
X456450Y235478D01*
X457111Y235920D01*
X463301Y242110D01*
X468323D01*
Y250016D01*
X460417D01*
Y244994D01*
X454824Y239401D01*
X447466D01*
X447275Y239863D01*
X463301Y255890D01*
X468323D01*
Y257803D01*
X469400D01*
X470180Y257959D01*
X470842Y258401D01*
X471284Y259062D01*
X471439Y259843D01*
Y299911D01*
X472168Y300213D01*
X472870Y300752D01*
X473409Y301454D01*
X473748Y302272D01*
X473864Y303150D01*
X473748Y304027D01*
X473409Y304845D01*
X472870Y305548D01*
X472168Y306086D01*
X471350Y306425D01*
X470472Y306541D01*
D02*
G37*
G36*
X511827Y255764D02*
X508374D01*
Y252311D01*
X511827D01*
Y255764D01*
D02*
G37*
G36*
X507374D02*
X503921D01*
Y252311D01*
X507374D01*
Y255764D01*
D02*
G37*
G36*
X303965Y255219D02*
Y251996D01*
X307187D01*
X307124Y252477D01*
X306745Y253390D01*
X306143Y254175D01*
X305359Y254777D01*
X304445Y255155D01*
X303965Y255219D01*
D02*
G37*
G36*
X302965D02*
X302484Y255155D01*
X301570Y254777D01*
X300786Y254175D01*
X300184Y253390D01*
X299805Y252477D01*
X299742Y251996D01*
X302965D01*
Y255219D01*
D02*
G37*
G36*
X253965D02*
Y251996D01*
X257187D01*
X257124Y252477D01*
X256745Y253390D01*
X256143Y254175D01*
X255359Y254777D01*
X254445Y255155D01*
X253965Y255219D01*
D02*
G37*
G36*
X252965D02*
X252484Y255155D01*
X251570Y254777D01*
X250786Y254175D01*
X250184Y253390D01*
X249805Y252477D01*
X249742Y251996D01*
X252965D01*
Y255219D01*
D02*
G37*
G36*
X358649Y255406D02*
X354831D01*
Y251588D01*
X355466Y251671D01*
X356523Y252109D01*
X357431Y252806D01*
X358127Y253714D01*
X358565Y254771D01*
X358649Y255406D01*
D02*
G37*
G36*
X353831D02*
X350013D01*
X350096Y254771D01*
X350534Y253714D01*
X351231Y252806D01*
X352139Y252109D01*
X353196Y251671D01*
X353831Y251588D01*
Y255406D01*
D02*
G37*
G36*
X398019Y255248D02*
X394201D01*
Y251430D01*
X394835Y251513D01*
X395893Y251951D01*
X396801Y252648D01*
X397497Y253556D01*
X397935Y254613D01*
X398019Y255248D01*
D02*
G37*
G36*
X393201D02*
X389383D01*
X389466Y254613D01*
X389904Y253556D01*
X390601Y252648D01*
X391509Y251951D01*
X392566Y251513D01*
X393201Y251430D01*
Y255248D01*
D02*
G37*
G36*
X430602Y255406D02*
X426586D01*
X426676Y254720D01*
X427134Y253614D01*
X427862Y252665D01*
X428811Y251937D01*
X429916Y251479D01*
X430602Y251389D01*
Y255406D01*
D02*
G37*
G36*
X511827Y251311D02*
X508374D01*
Y247858D01*
X511827D01*
Y251311D01*
D02*
G37*
G36*
X507374D02*
X503921D01*
Y247858D01*
X507374D01*
Y251311D01*
D02*
G37*
G36*
X307187Y250996D02*
X303965D01*
Y247774D01*
X304445Y247837D01*
X305359Y248215D01*
X306143Y248817D01*
X306745Y249602D01*
X307124Y250516D01*
X307187Y250996D01*
D02*
G37*
G36*
X302965D02*
X299742D01*
X299805Y250516D01*
X300184Y249602D01*
X300786Y248817D01*
X301570Y248215D01*
X302484Y247837D01*
X302965Y247774D01*
Y250996D01*
D02*
G37*
G36*
X257187D02*
X253965D01*
Y247774D01*
X254445Y247837D01*
X255359Y248215D01*
X256143Y248817D01*
X256745Y249602D01*
X257124Y250516D01*
X257187Y250996D01*
D02*
G37*
G36*
X252965D02*
X249742D01*
X249805Y250516D01*
X250184Y249602D01*
X250786Y248817D01*
X251570Y248215D01*
X252484Y247837D01*
X252965Y247774D01*
Y250996D01*
D02*
G37*
G36*
X293465Y255284D02*
X292484Y255155D01*
X291570Y254777D01*
X290786Y254175D01*
X290184Y253390D01*
X289805Y252477D01*
X289676Y251496D01*
X289805Y250516D01*
X290184Y249602D01*
X290786Y248817D01*
X291570Y248215D01*
X292484Y247837D01*
X293465Y247708D01*
X294445Y247837D01*
X295359Y248215D01*
X296143Y248817D01*
X296745Y249602D01*
X297124Y250516D01*
X297253Y251496D01*
X297124Y252477D01*
X296745Y253390D01*
X296143Y254175D01*
X295359Y254777D01*
X294445Y255155D01*
X293465Y255284D01*
D02*
G37*
G36*
X283465D02*
X282484Y255155D01*
X281570Y254777D01*
X280786Y254175D01*
X280184Y253390D01*
X279805Y252477D01*
X279676Y251496D01*
X279805Y250516D01*
X280184Y249602D01*
X280786Y248817D01*
X281570Y248215D01*
X282484Y247837D01*
X283465Y247708D01*
X284445Y247837D01*
X285359Y248215D01*
X286143Y248817D01*
X286745Y249602D01*
X287124Y250516D01*
X287253Y251496D01*
X287124Y252477D01*
X286745Y253390D01*
X286143Y254175D01*
X285359Y254777D01*
X284445Y255155D01*
X283465Y255284D01*
D02*
G37*
G36*
X273465D02*
X272484Y255155D01*
X271570Y254777D01*
X270786Y254175D01*
X270184Y253390D01*
X269805Y252477D01*
X269676Y251496D01*
X269805Y250516D01*
X270184Y249602D01*
X270786Y248817D01*
X271570Y248215D01*
X272484Y247837D01*
X273465Y247708D01*
X274445Y247837D01*
X275359Y248215D01*
X276143Y248817D01*
X276745Y249602D01*
X277124Y250516D01*
X277253Y251496D01*
X277124Y252477D01*
X276745Y253390D01*
X276143Y254175D01*
X275359Y254777D01*
X274445Y255155D01*
X273465Y255284D01*
D02*
G37*
G36*
X263465D02*
X262484Y255155D01*
X261570Y254777D01*
X260786Y254175D01*
X260184Y253390D01*
X259805Y252477D01*
X259676Y251496D01*
X259805Y250516D01*
X260184Y249602D01*
X260786Y248817D01*
X261570Y248215D01*
X262484Y247837D01*
X263465Y247708D01*
X264445Y247837D01*
X265359Y248215D01*
X266143Y248817D01*
X266745Y249602D01*
X267124Y250516D01*
X267253Y251496D01*
X267124Y252477D01*
X266745Y253390D01*
X266143Y254175D01*
X265359Y254777D01*
X264445Y255155D01*
X263465Y255284D01*
D02*
G37*
G36*
X492323Y250050D02*
X491291Y249914D01*
X490329Y249516D01*
X489504Y248882D01*
X488870Y248056D01*
X488472Y247095D01*
X488336Y246063D01*
X488472Y245031D01*
X488870Y244070D01*
X489504Y243244D01*
X490329Y242610D01*
X491291Y242212D01*
X492323Y242076D01*
X493355Y242212D01*
X494316Y242610D01*
X495142Y243244D01*
X495776Y244070D01*
X496174Y245031D01*
X496310Y246063D01*
X496174Y247095D01*
X495776Y248056D01*
X495142Y248882D01*
X494316Y249516D01*
X493355Y249914D01*
X492323Y250050D01*
D02*
G37*
G36*
X254122Y242110D02*
Y238689D01*
X257543D01*
X257473Y239221D01*
X257075Y240182D01*
X256441Y241008D01*
X255615Y241642D01*
X254654Y242040D01*
X254122Y242110D01*
D02*
G37*
G36*
X253122D02*
X252590Y242040D01*
X251629Y241642D01*
X250803Y241008D01*
X250169Y240182D01*
X249771Y239221D01*
X249701Y238689D01*
X253122D01*
Y242110D01*
D02*
G37*
G36*
X257543Y237689D02*
X254122D01*
Y234268D01*
X254654Y234338D01*
X255615Y234736D01*
X256441Y235370D01*
X257075Y236196D01*
X257473Y237157D01*
X257543Y237689D01*
D02*
G37*
G36*
X253122D02*
X249701D01*
X249771Y237157D01*
X250169Y236196D01*
X250803Y235370D01*
X251629Y234736D01*
X252590Y234338D01*
X253122Y234268D01*
Y237689D01*
D02*
G37*
G36*
X307575Y242142D02*
X299669D01*
Y234236D01*
X307575D01*
Y242142D01*
D02*
G37*
G36*
X293622Y242176D02*
X292590Y242040D01*
X291629Y241642D01*
X290803Y241008D01*
X290169Y240182D01*
X289771Y239221D01*
X289635Y238189D01*
X289771Y237157D01*
X290169Y236196D01*
X290803Y235370D01*
X291629Y234736D01*
X292590Y234338D01*
X293622Y234202D01*
X294654Y234338D01*
X295615Y234736D01*
X296441Y235370D01*
X297075Y236196D01*
X297473Y237157D01*
X297609Y238189D01*
X297473Y239221D01*
X297075Y240182D01*
X296441Y241008D01*
X295615Y241642D01*
X294654Y242040D01*
X293622Y242176D01*
D02*
G37*
G36*
X283622D02*
X282590Y242040D01*
X281629Y241642D01*
X280803Y241008D01*
X280169Y240182D01*
X279771Y239221D01*
X279635Y238189D01*
X279771Y237157D01*
X280169Y236196D01*
X280803Y235370D01*
X281629Y234736D01*
X282590Y234338D01*
X283622Y234202D01*
X284654Y234338D01*
X285615Y234736D01*
X286441Y235370D01*
X287075Y236196D01*
X287473Y237157D01*
X287609Y238189D01*
X287473Y239221D01*
X287075Y240182D01*
X286441Y241008D01*
X285615Y241642D01*
X284654Y242040D01*
X283622Y242176D01*
D02*
G37*
G36*
X273622D02*
X272590Y242040D01*
X271629Y241642D01*
X270803Y241008D01*
X270169Y240182D01*
X269771Y239221D01*
X269635Y238189D01*
X269771Y237157D01*
X270169Y236196D01*
X270803Y235370D01*
X271629Y234736D01*
X272590Y234338D01*
X273622Y234202D01*
X274654Y234338D01*
X275615Y234736D01*
X276441Y235370D01*
X277075Y236196D01*
X277473Y237157D01*
X277609Y238189D01*
X277473Y239221D01*
X277075Y240182D01*
X276441Y241008D01*
X275615Y241642D01*
X274654Y242040D01*
X273622Y242176D01*
D02*
G37*
G36*
X263622D02*
X262590Y242040D01*
X261629Y241642D01*
X260803Y241008D01*
X260169Y240182D01*
X259771Y239221D01*
X259635Y238189D01*
X259771Y237157D01*
X260169Y236196D01*
X260803Y235370D01*
X261629Y234736D01*
X262590Y234338D01*
X263622Y234202D01*
X264654Y234338D01*
X265615Y234736D01*
X266441Y235370D01*
X267075Y236196D01*
X267473Y237157D01*
X267609Y238189D01*
X267473Y239221D01*
X267075Y240182D01*
X266441Y241008D01*
X265615Y241642D01*
X264654Y242040D01*
X263622Y242176D01*
D02*
G37*
G36*
X508374Y232425D02*
Y229004D01*
X511795D01*
X511725Y229536D01*
X511327Y230497D01*
X510693Y231323D01*
X509867Y231957D01*
X508906Y232355D01*
X508374Y232425D01*
D02*
G37*
G36*
X488689Y231829D02*
Y229004D01*
X491514D01*
X491465Y229382D01*
X491126Y230200D01*
X490587Y230902D01*
X489885Y231441D01*
X489067Y231780D01*
X488689Y231829D01*
D02*
G37*
G36*
X487689D02*
X487311Y231780D01*
X486493Y231441D01*
X485791Y230902D01*
X485252Y230200D01*
X484913Y229382D01*
X484864Y229004D01*
X487689D01*
Y231829D01*
D02*
G37*
G36*
X507374Y232425D02*
X506842Y232355D01*
X505881Y231957D01*
X505055Y231323D01*
X504421Y230497D01*
X504023Y229536D01*
X503953Y229004D01*
X507374D01*
Y232425D01*
D02*
G37*
G36*
X491514Y228004D02*
X488689D01*
Y225179D01*
X489067Y225228D01*
X489885Y225567D01*
X490587Y226106D01*
X491126Y226808D01*
X491465Y227626D01*
X491514Y228004D01*
D02*
G37*
G36*
X487689D02*
X484864D01*
X484913Y227626D01*
X485252Y226808D01*
X485791Y226106D01*
X486493Y225567D01*
X487311Y225228D01*
X487689Y225179D01*
Y228004D01*
D02*
G37*
G36*
X511795D02*
X508374D01*
Y224583D01*
X508906Y224653D01*
X509867Y225051D01*
X510693Y225685D01*
X511327Y226511D01*
X511725Y227472D01*
X511795Y228004D01*
D02*
G37*
G36*
X507374D02*
X503953D01*
X504023Y227472D01*
X504421Y226511D01*
X505055Y225685D01*
X505881Y225051D01*
X506842Y224653D01*
X507374Y224583D01*
Y228004D01*
D02*
G37*
G36*
X507874Y222491D02*
X506842Y222355D01*
X505881Y221957D01*
X505055Y221323D01*
X504421Y220497D01*
X504023Y219536D01*
X503887Y218504D01*
X504023Y217472D01*
X504421Y216511D01*
X505055Y215685D01*
X505881Y215051D01*
X506842Y214653D01*
X507874Y214517D01*
X508906Y214653D01*
X509867Y215051D01*
X510693Y215685D01*
X511327Y216511D01*
X511725Y217472D01*
X511861Y218504D01*
X511725Y219536D01*
X511327Y220497D01*
X510693Y221323D01*
X509867Y221957D01*
X508906Y222355D01*
X507874Y222491D01*
D02*
G37*
G36*
X511827Y212457D02*
X503921D01*
Y210543D01*
X490862D01*
X490587Y210902D01*
X489885Y211441D01*
X489067Y211780D01*
X488189Y211895D01*
X487311Y211780D01*
X486493Y211441D01*
X485791Y210902D01*
X485252Y210200D01*
X484913Y209382D01*
X484798Y208504D01*
X484913Y207626D01*
X485252Y206808D01*
X485791Y206106D01*
X486493Y205567D01*
X487311Y205228D01*
X488189Y205113D01*
X489067Y205228D01*
X489885Y205567D01*
X490587Y206106D01*
X490862Y206465D01*
X503921D01*
Y204551D01*
X511827D01*
Y212457D01*
D02*
G37*
G36*
X492673Y195039D02*
X490934Y194868D01*
X489261Y194360D01*
X487719Y193536D01*
X486368Y192427D01*
X485259Y191076D01*
X484435Y189534D01*
X483928Y187862D01*
X483756Y186122D01*
X483928Y184382D01*
X484435Y182710D01*
X485259Y181168D01*
X486368Y179817D01*
X487719Y178708D01*
X489261Y177884D01*
X490934Y177376D01*
X492673Y177205D01*
X494413Y177376D01*
X496086Y177884D01*
X497627Y178708D01*
X498978Y179817D01*
X500087Y181168D01*
X500911Y182710D01*
X501419Y184382D01*
X501590Y186122D01*
X501419Y187862D01*
X500911Y189534D01*
X500087Y191076D01*
X498978Y192427D01*
X497627Y193536D01*
X496086Y194360D01*
X494413Y194868D01*
X492673Y195039D01*
D02*
G37*
G36*
X264327D02*
X262587Y194868D01*
X260914Y194360D01*
X259373Y193536D01*
X258022Y192427D01*
X256913Y191076D01*
X256089Y189534D01*
X255581Y187862D01*
X255410Y186122D01*
X255581Y184382D01*
X256089Y182710D01*
X256913Y181168D01*
X258022Y179817D01*
X259373Y178708D01*
X260914Y177884D01*
X262587Y177376D01*
X264327Y177205D01*
X266066Y177376D01*
X267739Y177884D01*
X269281Y178708D01*
X270632Y179817D01*
X271741Y181168D01*
X272565Y182710D01*
X273072Y184382D01*
X273244Y186122D01*
X273072Y187862D01*
X272565Y189534D01*
X271741Y191076D01*
X270632Y192427D01*
X269281Y193536D01*
X267739Y194360D01*
X266066Y194868D01*
X264327Y195039D01*
D02*
G37*
%LPD*%
G36*
X460417Y269669D02*
X467361D01*
Y263795D01*
X460417D01*
Y258774D01*
X444045Y242401D01*
X435646D01*
Y247565D01*
X459663Y271583D01*
X460417D01*
Y269669D01*
D02*
G37*
D28*
X427214Y350600D02*
X435039Y358425D01*
X318691Y350600D02*
X427214D01*
X309055Y360236D02*
X318691Y350600D01*
X275591Y360236D02*
X309055D01*
X263780Y348425D02*
X275591Y360236D01*
X431102Y265906D02*
X443400Y278203D01*
Y305000D01*
X440900Y307500D02*
X443400Y305000D01*
X415099Y307500D02*
X440900D01*
X403543Y319055D02*
X415099Y307500D01*
X383701Y319055D02*
X403543D01*
X377953Y313307D02*
X383701Y319055D01*
X393701Y245748D02*
X399087Y240362D01*
X444890D01*
X464370Y259843D01*
X455669Y237362D02*
X464370Y246063D01*
X362874Y237362D02*
X455669D01*
X354331Y245906D02*
X362874Y237362D01*
X464370Y259843D02*
X469400D01*
Y302077D01*
X470472Y303150D01*
X458819Y273622D02*
X464370D01*
X431102Y245906D02*
X458819Y273622D01*
X374058Y265748D02*
X393701D01*
X373900Y265906D02*
X374058Y265748D01*
X354331Y265906D02*
X373900D01*
X443957Y358268D02*
X452756D01*
X443800Y358425D02*
X443957Y358268D01*
X435039Y358425D02*
X443800D01*
X354331Y360236D02*
X399606D01*
X488189Y208504D02*
X507874D01*
X500911Y271811D02*
X507874D01*
X499100Y273622D02*
X500911Y271811D01*
X492323Y273622D02*
X499100D01*
X430158Y319055D02*
X438976D01*
X430000Y318898D02*
X430158Y319055D01*
X421260Y318898D02*
X430000D01*
X328857Y313150D02*
X342520D01*
X328700Y312992D02*
X328857Y313150D01*
X315118Y312992D02*
X328700D01*
X313465Y251496D02*
X323465D01*
D29*
X377953Y293307D02*
D03*
X431102Y245906D02*
D03*
D30*
X377953Y303307D02*
D03*
Y313307D02*
D03*
X431102Y255906D02*
D03*
Y265906D02*
D03*
D31*
X354331Y360236D02*
D03*
Y340551D02*
D03*
X492323Y273622D02*
D03*
Y246063D02*
D03*
Y259843D02*
D03*
Y287402D02*
D03*
X507874Y261811D02*
D03*
Y271811D02*
D03*
Y218504D02*
D03*
Y228504D02*
D03*
X293622Y238189D02*
D03*
X283622D02*
D03*
X273622D02*
D03*
X263622D02*
D03*
X253622D02*
D03*
X399606Y360236D02*
D03*
Y340551D02*
D03*
X309055Y360236D02*
D03*
Y340551D02*
D03*
X263780Y348425D02*
D03*
Y328740D02*
D03*
X507874Y309055D02*
D03*
Y319055D02*
D03*
X313465Y295276D02*
D03*
X303465D02*
D03*
X293465D02*
D03*
X283465D02*
D03*
X273465D02*
D03*
X263465D02*
D03*
X253465D02*
D03*
D32*
X354331Y265906D02*
D03*
Y255906D02*
D03*
X393701Y265748D02*
D03*
Y255748D02*
D03*
D33*
X354331Y245906D02*
D03*
X393701Y245748D02*
D03*
D34*
X438976Y319055D02*
D03*
Y299055D02*
D03*
X488189Y208504D02*
D03*
Y228504D02*
D03*
X421260Y318898D02*
D03*
Y298898D02*
D03*
X403543Y319055D02*
D03*
Y299055D02*
D03*
X470472Y303150D02*
D03*
X490472D02*
D03*
X470315Y320866D02*
D03*
X490315D02*
D03*
X435039Y358425D02*
D03*
Y338425D02*
D03*
X470315Y338583D02*
D03*
X490315D02*
D03*
X470472Y358268D02*
D03*
X490472D02*
D03*
X342520Y313150D02*
D03*
Y293150D02*
D03*
X315118Y312992D02*
D03*
X295118D02*
D03*
X452756Y358268D02*
D03*
Y338268D02*
D03*
D35*
X464370Y273622D02*
D03*
Y246063D02*
D03*
Y259843D02*
D03*
Y287402D02*
D03*
X303622Y238189D02*
D03*
X323465Y295276D02*
D03*
D36*
X507874Y251811D02*
D03*
Y208504D02*
D03*
Y299055D02*
D03*
D37*
X323465Y281496D02*
D03*
D38*
X313465D02*
D03*
X303465D02*
D03*
X293465D02*
D03*
X283465D02*
D03*
X273465D02*
D03*
X263465D02*
D03*
X253465D02*
D03*
X263465Y251496D02*
D03*
X273465D02*
D03*
X283465D02*
D03*
X293465D02*
D03*
X303465D02*
D03*
X313465D02*
D03*
X323465D02*
D03*
X253465D02*
D03*
D39*
X264327Y186122D02*
D03*
X492673D02*
D03*
Y379035D02*
D03*
X264327D02*
D03*
M02*
