G04*
G04 #@! TF.GenerationSoftware,Altium Limited,Altium Designer,20.2.6 (244)*
G04*
G04 Layer_Color=255*
%FSLAX25Y25*%
%MOIN*%
G70*
G04*
G04 #@! TF.SameCoordinates,D736F6B9-9090-4B46-9E75-5C41576542F1*
G04*
G04*
G04 #@! TF.FilePolarity,Positive*
G04*
G01*
G75*
%ADD29R,0.07087X0.07087*%
%ADD30C,0.07087*%
%ADD31C,0.05906*%
%ADD32C,0.06693*%
%ADD33R,0.06693X0.06693*%
%ADD34C,0.04724*%
%ADD35R,0.05906X0.05906*%
%ADD36R,0.05906X0.05906*%
%ADD37R,0.05512X0.05512*%
%ADD38C,0.05512*%
%ADD39C,0.15748*%
D29*
X377953Y293307D02*
D03*
X431102Y245906D02*
D03*
D30*
X377953Y303307D02*
D03*
Y313307D02*
D03*
X431102Y255906D02*
D03*
Y265906D02*
D03*
D31*
X354331Y360236D02*
D03*
Y340551D02*
D03*
X492323Y273622D02*
D03*
Y246063D02*
D03*
Y259843D02*
D03*
Y287402D02*
D03*
X507874Y261811D02*
D03*
Y271811D02*
D03*
Y218504D02*
D03*
Y228504D02*
D03*
X293622Y238189D02*
D03*
X283622D02*
D03*
X273622D02*
D03*
X263622D02*
D03*
X253622D02*
D03*
X399606Y360236D02*
D03*
Y340551D02*
D03*
X309055Y360236D02*
D03*
Y340551D02*
D03*
X263780Y348425D02*
D03*
Y328740D02*
D03*
X507874Y309055D02*
D03*
Y319055D02*
D03*
X313465Y295276D02*
D03*
X303465D02*
D03*
X293465D02*
D03*
X283465D02*
D03*
X273465D02*
D03*
X263465D02*
D03*
X253465D02*
D03*
D32*
X354331Y265906D02*
D03*
Y255906D02*
D03*
X393701Y265748D02*
D03*
Y255748D02*
D03*
D33*
X354331Y245906D02*
D03*
X393701Y245748D02*
D03*
D34*
X438976Y319055D02*
D03*
Y299055D02*
D03*
X488189Y208504D02*
D03*
Y228504D02*
D03*
X421260Y318898D02*
D03*
Y298898D02*
D03*
X403543Y319055D02*
D03*
Y299055D02*
D03*
X470472Y303150D02*
D03*
X490472D02*
D03*
X470315Y320866D02*
D03*
X490315D02*
D03*
X435039Y358425D02*
D03*
Y338425D02*
D03*
X470315Y338583D02*
D03*
X490315D02*
D03*
X470472Y358268D02*
D03*
X490472D02*
D03*
X342520Y313150D02*
D03*
Y293150D02*
D03*
X315118Y312992D02*
D03*
X295118D02*
D03*
X452756Y358268D02*
D03*
Y338268D02*
D03*
D35*
X464370Y273622D02*
D03*
Y246063D02*
D03*
Y259843D02*
D03*
Y287402D02*
D03*
X303622Y238189D02*
D03*
X323465Y295276D02*
D03*
D36*
X507874Y251811D02*
D03*
Y208504D02*
D03*
Y299055D02*
D03*
D37*
X323465Y281496D02*
D03*
D38*
X313465D02*
D03*
X303465D02*
D03*
X293465D02*
D03*
X283465D02*
D03*
X273465D02*
D03*
X263465D02*
D03*
X253465D02*
D03*
X263465Y251496D02*
D03*
X273465D02*
D03*
X283465D02*
D03*
X293465D02*
D03*
X303465D02*
D03*
X313465D02*
D03*
X323465D02*
D03*
X253465D02*
D03*
D39*
X264327Y186122D02*
D03*
X492673D02*
D03*
Y379035D02*
D03*
X264327D02*
D03*
M02*
