G04*
G04 #@! TF.GenerationSoftware,Altium Limited,Altium Designer,20.2.6 (244)*
G04*
G04 Layer_Color=65535*
%FSLAX25Y25*%
%MOIN*%
G70*
G04*
G04 #@! TF.SameCoordinates,D736F6B9-9090-4B46-9E75-5C41576542F1*
G04*
G04*
G04 #@! TF.FilePolarity,Positive*
G04*
G01*
G75*
%ADD10C,0.00984*%
%ADD11C,0.00500*%
%ADD12C,0.00787*%
%ADD13C,0.01000*%
%ADD14C,0.00591*%
%ADD15R,0.03150X0.07480*%
%ADD16R,0.03150X0.07480*%
D10*
X375000Y350394D02*
G03*
X375000Y350394I-20669J0D01*
G01*
X420276D02*
G03*
X420276Y350394I-20669J0D01*
G01*
X329724D02*
G03*
X329724Y350394I-20669J0D01*
G01*
X284449Y338583D02*
G03*
X284449Y338583I-20669J0D01*
G01*
D11*
X323464Y266299D02*
G03*
X328268Y261496I4803J0D01*
G01*
Y271496D02*
G03*
X323464Y266693I0J-4803D01*
G01*
X328268Y271496D02*
Y278996D01*
Y253996D02*
Y261496D01*
X325965Y253996D02*
X328268D01*
X327047Y278996D02*
X328268D01*
D12*
X368504Y282835D02*
Y323780D01*
X366535Y282835D02*
Y323780D01*
X384646Y282835D02*
Y323780D01*
X366535Y282835D02*
X384646D01*
X366535Y323780D02*
X384646D01*
X344882Y235433D02*
Y276378D01*
X342913Y235433D02*
X361024D01*
Y276378D01*
X342913D02*
X361024D01*
X342913Y235433D02*
Y276378D01*
X384252Y235276D02*
Y276220D01*
X382283Y235276D02*
X400394D01*
Y276220D01*
X382283D02*
X400394D01*
X382283Y235276D02*
Y276220D01*
X421654Y235433D02*
Y276378D01*
X419685Y235433D02*
Y276378D01*
X437795Y235433D02*
Y276378D01*
X419685Y235433D02*
X437795D01*
X419685Y276378D02*
X437795D01*
X431476Y326555D02*
X446476D01*
Y291555D02*
Y326555D01*
X431476Y291555D02*
X446476D01*
X431476D02*
Y326555D01*
X486024Y269882D02*
Y277362D01*
X470669Y269882D02*
X486024D01*
X470669Y277362D02*
X486024D01*
Y242323D02*
Y249803D01*
X470669Y242323D02*
X486024D01*
X470669Y249803D02*
X486024D01*
Y256102D02*
Y263583D01*
X470669Y256102D02*
X486024D01*
X470669Y263583D02*
X486024D01*
Y283661D02*
Y291142D01*
X470669Y283661D02*
X486024D01*
X470669Y291142D02*
X486024D01*
X480689Y201004D02*
X495689D01*
X480689D02*
Y236004D01*
X495689D01*
Y201004D02*
Y236004D01*
X413760Y326398D02*
X428760D01*
Y291398D02*
Y326398D01*
X413760Y291398D02*
X428760D01*
X413760D02*
Y326398D01*
X396043Y326555D02*
X411043D01*
Y291555D02*
Y326555D01*
X396043Y291555D02*
X411043D01*
X396043D02*
Y326555D01*
X512874Y246811D02*
Y276811D01*
X502874D02*
X512874D01*
X502874Y246811D02*
Y276811D01*
Y246811D02*
X512874D01*
Y203504D02*
Y233504D01*
X502874D02*
X512874D01*
X502874Y203504D02*
Y233504D01*
Y203504D02*
X512874D01*
X462972Y295650D02*
Y310650D01*
X497972D01*
Y295650D02*
Y310650D01*
X462972Y295650D02*
X497972D01*
X462815Y313366D02*
Y328366D01*
X497815D01*
Y313366D02*
Y328366D01*
X462815Y313366D02*
X497815D01*
X427539Y365925D02*
X442539D01*
Y330925D02*
Y365925D01*
X427539Y330925D02*
X442539D01*
X427539D02*
Y365925D01*
X462815Y331083D02*
Y346083D01*
X497815D01*
Y331083D02*
Y346083D01*
X462815Y331083D02*
X497815D01*
X462972Y350768D02*
Y365768D01*
X497972D01*
Y350768D02*
Y365768D01*
X462972Y350768D02*
X497972D01*
X248622Y233189D02*
Y243189D01*
X308622Y233189D02*
Y243189D01*
X248622Y233189D02*
X308622D01*
X248622Y243189D02*
X308622D01*
X335020Y320650D02*
X350020D01*
Y285650D02*
Y320650D01*
X335020Y285650D02*
X350020D01*
X335020D02*
Y320650D01*
X322618Y305492D02*
Y320492D01*
X287618Y305492D02*
X322618D01*
X287618D02*
Y320492D01*
X322618D01*
X445256Y365768D02*
X460256D01*
Y330768D02*
Y365768D01*
X445256Y330768D02*
X460256D01*
X445256D02*
Y365768D01*
X512874Y294055D02*
Y324055D01*
X502874D02*
X512874D01*
X502874Y294055D02*
Y324055D01*
Y294055D02*
X512874D01*
X248465Y290276D02*
Y300276D01*
X328465D01*
Y290276D02*
Y300276D01*
X248465Y290276D02*
X328465D01*
D13*
X253030Y262842D02*
X249031D01*
X253030Y266841D01*
Y267840D01*
X252030Y268840D01*
X250031D01*
X249031Y267840D01*
X255030D02*
X256029Y268840D01*
X258029D01*
X259028Y267840D01*
Y263842D01*
X258029Y262842D01*
X256029D01*
X255030Y263842D01*
Y267840D01*
X265026Y262842D02*
X261028D01*
X265026Y266841D01*
Y267840D01*
X264027Y268840D01*
X262027D01*
X261028Y267840D01*
X267026Y262842D02*
X269025D01*
X268025D01*
Y268840D01*
X267026Y267840D01*
X276023D02*
X275023Y268840D01*
X273024D01*
X272024Y267840D01*
Y263842D01*
X273024Y262842D01*
X275023D01*
X276023Y263842D01*
X279022Y266841D02*
X281021D01*
X282021Y265841D01*
Y262842D01*
X279022D01*
X278022Y263842D01*
X279022Y264841D01*
X282021D01*
X284020Y260842D02*
Y266841D01*
X287019D01*
X288019Y265841D01*
Y263842D01*
X287019Y262842D01*
X284020D01*
X290018D02*
X293017D01*
X294017Y263842D01*
X293017Y264841D01*
X291018D01*
X290018Y265841D01*
X291018Y266841D01*
X294017D01*
X297016Y267840D02*
Y266841D01*
X296016D01*
X298016D01*
X297016D01*
Y263842D01*
X298016Y262842D01*
X302014D02*
X304014D01*
X305013Y263842D01*
Y265841D01*
X304014Y266841D01*
X302014D01*
X301015Y265841D01*
Y263842D01*
X302014Y262842D01*
X307013D02*
Y266841D01*
X310012D01*
X311012Y265841D01*
Y262842D01*
X316010D02*
X314011D01*
X313011Y263842D01*
Y265841D01*
X314011Y266841D01*
X316010D01*
X317009Y265841D01*
Y264841D01*
X313011D01*
X314962Y243905D02*
Y238906D01*
X315962Y237907D01*
X317961D01*
X318961Y238906D01*
Y243905D01*
X324959D02*
X320960D01*
Y240905D01*
X322960Y241905D01*
X323959D01*
X324959Y240905D01*
Y238906D01*
X323959Y237907D01*
X321960D01*
X320960Y238906D01*
X345395Y233314D02*
Y228316D01*
X346395Y227316D01*
X348394D01*
X349394Y228316D01*
Y233314D01*
X354392Y227316D02*
Y233314D01*
X351393Y230315D01*
X355392D01*
X384765Y233156D02*
Y228158D01*
X385765Y227158D01*
X387764D01*
X388764Y228158D01*
Y233156D01*
X390763Y232157D02*
X391763Y233156D01*
X393762D01*
X394762Y232157D01*
Y231157D01*
X393762Y230157D01*
X392763D01*
X393762D01*
X394762Y229158D01*
Y228158D01*
X393762Y227158D01*
X391763D01*
X390763Y228158D01*
X422167Y233314D02*
Y228316D01*
X423167Y227316D01*
X425166D01*
X426166Y228316D01*
Y233314D01*
X432164Y227316D02*
X428165D01*
X432164Y231315D01*
Y232314D01*
X431164Y233314D01*
X429165D01*
X428165Y232314D01*
X368049Y280558D02*
Y275560D01*
X369048Y274560D01*
X371048D01*
X372047Y275560D01*
Y280558D01*
X374047Y274560D02*
X376046D01*
X375046D01*
Y280558D01*
X374047Y279558D01*
X246970Y221410D02*
Y227409D01*
X249969D01*
X250969Y226409D01*
Y224410D01*
X249969Y223410D01*
X246970D01*
X256967Y227409D02*
X252968D01*
Y224410D01*
X254967Y225409D01*
X255967D01*
X256967Y224410D01*
Y222410D01*
X255967Y221410D01*
X253968D01*
X252968Y222410D01*
X249064Y303676D02*
Y309674D01*
X252064D01*
X253063Y308674D01*
Y306675D01*
X252064Y305675D01*
X249064D01*
X258062Y303676D02*
Y309674D01*
X255063Y306675D01*
X259061D01*
X498408Y195820D02*
X500407D01*
X499408D01*
Y201818D01*
X498408Y200818D01*
X507405Y195820D02*
X503406D01*
X507405Y199819D01*
Y200818D01*
X506405Y201818D01*
X504406D01*
X503406Y200818D01*
X509404Y201818D02*
Y197819D01*
X511404Y195820D01*
X513403Y197819D01*
Y201818D01*
X507436Y333398D02*
X503437D01*
Y330399D01*
X505436Y331399D01*
X506436D01*
X507436Y330399D01*
Y328400D01*
X506436Y327400D01*
X504437D01*
X503437Y328400D01*
X509435Y333398D02*
Y329399D01*
X511434Y327400D01*
X513434Y329399D01*
Y333398D01*
X498408Y280466D02*
X500407D01*
X499408D01*
Y286464D01*
X498408Y285464D01*
X506405Y280466D02*
Y286464D01*
X503406Y283465D01*
X507405D01*
X509404Y286464D02*
Y282465D01*
X511404Y280466D01*
X513403Y282465D01*
Y286464D01*
X449726Y249062D02*
Y243064D01*
X452725D01*
X453725Y244064D01*
Y248062D01*
X452725Y249062D01*
X449726D01*
X458723Y243064D02*
Y249062D01*
X455724Y246063D01*
X459723D01*
X449726Y262842D02*
Y256843D01*
X452725D01*
X453725Y257843D01*
Y261842D01*
X452725Y262842D01*
X449726D01*
X455724Y261842D02*
X456724Y262842D01*
X458723D01*
X459723Y261842D01*
Y260842D01*
X458723Y259842D01*
X457723D01*
X458723D01*
X459723Y258843D01*
Y257843D01*
X458723Y256843D01*
X456724D01*
X455724Y257843D01*
X449726Y276621D02*
Y270623D01*
X452725D01*
X453725Y271623D01*
Y275621D01*
X452725Y276621D01*
X449726D01*
X459723Y270623D02*
X455724D01*
X459723Y274622D01*
Y275621D01*
X458723Y276621D01*
X456724D01*
X455724Y275621D01*
X450726Y290401D02*
Y284402D01*
X453725D01*
X454724Y285402D01*
Y289401D01*
X453725Y290401D01*
X450726D01*
X456724Y284402D02*
X458723D01*
X457723D01*
Y290401D01*
X456724Y289401D01*
X449855Y374166D02*
X448855Y375166D01*
X446856D01*
X445856Y374166D01*
Y370167D01*
X446856Y369168D01*
X448855D01*
X449855Y370167D01*
X451854Y369168D02*
X453853D01*
X452854D01*
Y375166D01*
X451854Y374166D01*
X460851Y375166D02*
X458852Y374166D01*
X456852Y372167D01*
Y370167D01*
X457852Y369168D01*
X459851D01*
X460851Y370167D01*
Y371167D01*
X459851Y372167D01*
X456852D01*
X432104Y374367D02*
X431105Y375367D01*
X429105D01*
X428105Y374367D01*
Y370368D01*
X429105Y369369D01*
X431105D01*
X432104Y370368D01*
X434104Y369369D02*
X436103D01*
X435103D01*
Y375367D01*
X434104Y374367D01*
X443101Y375367D02*
X439102D01*
Y372368D01*
X441101Y373367D01*
X442101D01*
X443101Y372368D01*
Y370368D01*
X442101Y369369D01*
X440102D01*
X439102Y370368D01*
X400044Y289401D02*
X399045Y290401D01*
X397045D01*
X396046Y289401D01*
Y285402D01*
X397045Y284402D01*
X399045D01*
X400044Y285402D01*
X402044Y284402D02*
X404043D01*
X403044D01*
Y290401D01*
X402044Y289401D01*
X410041Y284402D02*
Y290401D01*
X407042Y287402D01*
X411041D01*
X466974Y234283D02*
X465974Y235282D01*
X463975D01*
X462975Y234283D01*
Y230284D01*
X463975Y229284D01*
X465974D01*
X466974Y230284D01*
X468973Y229284D02*
X470972D01*
X469973D01*
Y235282D01*
X468973Y234283D01*
X473971D02*
X474971Y235282D01*
X476970D01*
X477970Y234283D01*
Y233283D01*
X476970Y232283D01*
X475971D01*
X476970D01*
X477970Y231284D01*
Y230284D01*
X476970Y229284D01*
X474971D01*
X473971Y230284D01*
X247623Y367730D02*
X246623Y368730D01*
X244624D01*
X243624Y367730D01*
Y363731D01*
X244624Y362732D01*
X246623D01*
X247623Y363731D01*
X249623Y362732D02*
X251622D01*
X250622D01*
Y368730D01*
X249623Y367730D01*
X258620Y362732D02*
X254621D01*
X258620Y366730D01*
Y367730D01*
X257620Y368730D01*
X255621D01*
X254621Y367730D01*
X292912Y379583D02*
X291912Y380583D01*
X289913D01*
X288913Y379583D01*
Y375585D01*
X289913Y374585D01*
X291912D01*
X292912Y375585D01*
X294912Y374585D02*
X296911D01*
X295911D01*
Y380583D01*
X294912Y379583D01*
X299910Y374585D02*
X301909D01*
X300909D01*
Y380583D01*
X299910Y379583D01*
X338155Y379519D02*
X337155Y380519D01*
X335156D01*
X334156Y379519D01*
Y375520D01*
X335156Y374520D01*
X337155D01*
X338155Y375520D01*
X340154Y374520D02*
X342153D01*
X341154D01*
Y380519D01*
X340154Y379519D01*
X345152D02*
X346152Y380519D01*
X348151D01*
X349151Y379519D01*
Y375520D01*
X348151Y374520D01*
X346152D01*
X345152Y375520D01*
Y379519D01*
X383481Y379572D02*
X382481Y380572D01*
X380482D01*
X379482Y379572D01*
Y375574D01*
X380482Y374574D01*
X382481D01*
X383481Y375574D01*
X385480D02*
X386480Y374574D01*
X388479D01*
X389479Y375574D01*
Y379572D01*
X388479Y380572D01*
X386480D01*
X385480Y379572D01*
Y378573D01*
X386480Y377573D01*
X389479D01*
X502937Y344519D02*
X501938Y345519D01*
X499938D01*
X498939Y344519D01*
Y340520D01*
X499938Y339521D01*
X501938D01*
X502937Y340520D01*
X504937Y344519D02*
X505936Y345519D01*
X507936D01*
X508935Y344519D01*
Y343519D01*
X507936Y342520D01*
X508935Y341520D01*
Y340520D01*
X507936Y339521D01*
X505936D01*
X504937Y340520D01*
Y341520D01*
X505936Y342520D01*
X504937Y343519D01*
Y344519D01*
X505936Y342520D02*
X507936D01*
X453882Y309086D02*
X452882Y310086D01*
X450883D01*
X449884Y309086D01*
Y305087D01*
X450883Y304088D01*
X452882D01*
X453882Y305087D01*
X455882Y310086D02*
X459880D01*
Y309086D01*
X455882Y305087D01*
Y304088D01*
X339667Y329061D02*
X338667Y330061D01*
X336668D01*
X335668Y329061D01*
Y325063D01*
X336668Y324063D01*
X338667D01*
X339667Y325063D01*
X345665Y330061D02*
X343666Y329061D01*
X341667Y327062D01*
Y325063D01*
X342666Y324063D01*
X344666D01*
X345665Y325063D01*
Y326062D01*
X344666Y327062D01*
X341667D01*
X437977Y287432D02*
X436977Y288432D01*
X434978D01*
X433978Y287432D01*
Y283434D01*
X434978Y282434D01*
X436977D01*
X437977Y283434D01*
X443975Y288432D02*
X439976D01*
Y285433D01*
X441975Y286433D01*
X442975D01*
X443975Y285433D01*
Y283434D01*
X442975Y282434D01*
X440976D01*
X439976Y283434D01*
X503095Y360267D02*
X502095Y361267D01*
X500096D01*
X499096Y360267D01*
Y356268D01*
X500096Y355269D01*
X502095D01*
X503095Y356268D01*
X508093Y355269D02*
Y361267D01*
X505094Y358268D01*
X509093D01*
X453725Y326802D02*
X452725Y327802D01*
X450726D01*
X449726Y326802D01*
Y322804D01*
X450726Y321804D01*
X452725D01*
X453725Y322804D01*
X455724Y326802D02*
X456724Y327802D01*
X458723D01*
X459723Y326802D01*
Y325803D01*
X458723Y324803D01*
X457723D01*
X458723D01*
X459723Y323803D01*
Y322804D01*
X458723Y321804D01*
X456724D01*
X455724Y322804D01*
X292267Y328930D02*
X291267Y329930D01*
X289268D01*
X288268Y328930D01*
Y324931D01*
X289268Y323932D01*
X291267D01*
X292267Y324931D01*
X298265Y323932D02*
X294267D01*
X298265Y327930D01*
Y328930D01*
X297266Y329930D01*
X295266D01*
X294267Y328930D01*
X419291Y289401D02*
X418292Y290401D01*
X416292D01*
X415293Y289401D01*
Y285402D01*
X416292Y284403D01*
X418292D01*
X419291Y285402D01*
X421291Y284403D02*
X423290D01*
X422290D01*
Y290401D01*
X421291Y289401D01*
D14*
X392421Y292323D02*
Y294291D01*
Y293307D01*
X386518D01*
X387502Y292323D01*
X392421Y315274D02*
Y311339D01*
X388486Y315274D01*
X387502D01*
X386518Y314290D01*
Y312322D01*
X387502Y311339D01*
X387502Y301339D02*
X386518Y302323D01*
Y304290D01*
X387502Y305274D01*
X388486D01*
X389470Y304290D01*
Y303306D01*
Y304290D01*
X390453Y305274D01*
X391437D01*
X392421Y304290D01*
Y302323D01*
X391437Y301339D01*
X368799Y244921D02*
Y246889D01*
Y245905D01*
X362896D01*
X363880Y244921D01*
X368799Y267873D02*
Y263937D01*
X364863Y267873D01*
X363879D01*
X362896Y266889D01*
Y264921D01*
X363879Y263937D01*
Y253937D02*
X362896Y254921D01*
Y256889D01*
X363879Y257873D01*
X364863D01*
X365847Y256889D01*
Y255905D01*
Y256889D01*
X366831Y257873D01*
X367815D01*
X368799Y256889D01*
Y254921D01*
X367815Y253937D01*
X408169Y244764D02*
Y246732D01*
Y245748D01*
X402266D01*
X403250Y244764D01*
X408169Y267715D02*
Y263779D01*
X404234Y267715D01*
X403250D01*
X402266Y266731D01*
Y264763D01*
X403250Y263779D01*
Y253780D02*
X402266Y254764D01*
Y256731D01*
X403250Y257715D01*
X404234D01*
X405218Y256731D01*
Y255747D01*
Y256731D01*
X406201Y257715D01*
X407185D01*
X408169Y256731D01*
Y254764D01*
X407185Y253780D01*
X445571Y244921D02*
Y246889D01*
Y245905D01*
X439667D01*
X440651Y244921D01*
X445571Y267873D02*
Y263937D01*
X441635Y267873D01*
X440651D01*
X439667Y266889D01*
Y264921D01*
X440651Y263937D01*
X440651Y253937D02*
X439667Y254921D01*
Y256889D01*
X440651Y257873D01*
X441635D01*
X442619Y256889D01*
Y255905D01*
Y256889D01*
X443603Y257873D01*
X444587D01*
X445571Y256889D01*
Y254921D01*
X444587Y253937D01*
D15*
X471850Y273622D02*
D03*
Y259842D02*
D03*
D16*
Y246063D02*
D03*
Y287402D02*
D03*
M02*
